<svg width="18" height="18" viewBox="0 0 18 18" fill="none" xmlns="http://www.w3.org/2000/svg">
<g clip-path="url(#clip0)">
<path d="M16.418 1.99453H1.58203C0.627994 1.99453 -0.15 2.77166 -0.15 3.72656V14.2734C-0.15 15.225 0.624453 16.0055 1.58203 16.0055H16.418C17.3695 16.0055 18.15 15.231 18.15 14.2734V3.72656C18.15 2.77499 17.3755 1.99453 16.418 1.99453ZM9.03308 10.1535L2.16994 3.34922H15.8374L9.03308 10.1535ZM5.92144 8.97616L1.20469 13.6929V4.29986L5.92144 8.97616ZM11.1445 9.9579L15.8374 14.6508H2.16259L6.88345 9.92992L8.5583 11.5904C8.82309 11.8529 9.25041 11.8521 9.51413 11.5883L11.1445 9.9579ZM16.7953 4.30709V13.6929L12.1024 9L16.7953 4.30709Z" fill="white" stroke="white" stroke-width="0.3"/>
</g>
<defs>
<clipPath id="clip0">
<rect width="18" height="18" fill="white"/>
</clipPath>
</defs>
</svg>
