<svg width="69" height="69" viewBox="0 0 69 69" fill="none" xmlns="http://www.w3.org/2000/svg">
<circle cx="34.5" cy="34.5" r="34.5" fill="white"/>
<path d="M31.7779 44.8654H27.8991C26.4761 44.8654 25.3228 46.007 25.3228 47.4155V50.2549H43.0718V47.4155C43.0718 46.007 41.9184 44.8654 40.4954 44.8654H36.6166H31.7779Z" fill="url(#paint0_linear)"/>
<path d="M53.8933 18.8547C52.5599 16.7871 50.2231 15.6488 47.3142 15.6488H47.2388H21.1568H21.0814C18.1717 15.6488 15.8357 16.7863 14.5031 18.8547C13.0625 21.0889 13.0256 24.0519 14.4018 26.9866C16.9312 32.3778 24.9099 34.1751 25.2483 34.2489L26.0248 34.4188H26.0256H42.37H42.3708L43.1481 34.2497C43.4865 34.1759 51.466 32.3786 53.9938 26.9874C55.3699 24.0519 55.3331 21.0889 53.8933 18.8547ZM51.6042 25.8881C50.5908 28.0486 48.2221 29.5085 46.4129 30.3524C45.6667 30.7015 44.9564 30.9742 44.3542 31.1806L24.0414 31.1815H24.0405C23.4383 30.9734 22.7272 30.7006 21.9818 30.3524C20.1735 29.5085 17.804 28.0478 16.7905 25.8881C15.8005 23.7783 15.7762 21.7264 16.7227 20.2582C17.5544 18.9674 19.1031 18.257 21.0806 18.257H21.1585H47.2363H47.3142C49.2917 18.257 50.8395 18.9674 51.6721 20.2582C52.6185 21.7256 52.5942 23.7783 51.6042 25.8881Z" fill="url(#paint1_linear)"/>
<path d="M36.0419 44.8654L36.0378 42.3344C36.0352 40.5138 36.9884 38.8102 38.5739 37.8875C43.6237 34.9502 47.2378 27.0762 47.2378 17.8218V13.0325H21.1558V17.8218C21.1558 27.0762 24.7707 34.9511 29.8205 37.8875C31.406 38.8102 32.36 40.513 32.3566 42.3335L32.3533 44.8654H34.4606H36.0419Z" fill="url(#paint2_linear)"/>
<path d="M33.3166 42.3344L33.3149 44.8654H32.3534L32.3568 42.3344C32.3593 40.5138 31.4053 38.8102 29.8206 37.8883C24.7709 34.9511 21.1567 27.0762 21.1567 17.8218V13.0325H27.9578V17.8218C27.9578 27.0762 29.6883 34.9502 32.1038 37.8875C32.8618 38.8102 33.3183 40.5138 33.3166 42.3344Z" fill="url(#paint3_linear)"/>
<path d="M33.5206 44.8655H31.7784H27.8996C26.4766 44.8655 25.3232 46.007 25.3232 47.4156V50.255H30.9442V47.4156C30.9442 46.007 32.0984 44.8655 33.5206 44.8655Z" fill="url(#paint4_linear)"/>
<path d="M31.1081 48.8638H24.3288C23.5206 48.8638 22.8647 49.5121 22.8647 50.3129V55.4786H45.5311V50.3129C45.5311 49.5129 44.8762 48.8638 44.0671 48.8638H37.2869" fill="url(#paint5_linear)"/>
<path d="M26.0852 48.8638H24.3288C23.5206 48.8638 22.8647 49.5121 22.8647 50.3129V55.4786H24.6211V50.3129C24.6211 49.5129 25.2761 48.8638 26.0852 48.8638Z" fill="url(#paint6_linear)"/>
<defs>
<linearGradient id="paint0_linear" x1="25.8025" y1="47.589" x2="41.8257" y2="47.8423" gradientUnits="userSpaceOnUse">
<stop stop-color="#E2D0FF"/>
<stop offset="1" stop-color="#8A4CEA"/>
</linearGradient>
<linearGradient id="paint1_linear" x1="26.4755" y1="4.90522" x2="26.0292" y2="34.2948" gradientUnits="userSpaceOnUse">
<stop stop-color="#4DB6EE"/>
<stop offset="1" stop-color="#673FE2"/>
</linearGradient>
<linearGradient id="paint2_linear" x1="36.0936" y1="13.0325" x2="33.3553" y2="46.9571" gradientUnits="userSpaceOnUse">
<stop stop-color="#4DB6EE"/>
<stop offset="1" stop-color="#673FE2"/>
</linearGradient>
<linearGradient id="paint3_linear" x1="24.9797" y1="-5.18818" x2="20.6199" y2="44.2823" gradientUnits="userSpaceOnUse">
<stop stop-color="#4DB6EE"/>
<stop offset="1" stop-color="#673FE2"/>
</linearGradient>
<linearGradient id="paint4_linear" x1="27.9004" y1="41.7806" x2="27.7137" y2="50.2172" gradientUnits="userSpaceOnUse">
<stop stop-color="#4DB6EE"/>
<stop offset="1" stop-color="#673FE2"/>
</linearGradient>
<linearGradient id="paint5_linear" x1="35.8464" y1="48.8638" x2="35.7263" y2="55.5062" gradientUnits="userSpaceOnUse">
<stop stop-color="#4DB6EE"/>
<stop offset="1" stop-color="#673FE2"/>
</linearGradient>
<linearGradient id="paint6_linear" x1="23.8772" y1="45.0776" x2="23.1643" y2="55.3879" gradientUnits="userSpaceOnUse">
<stop stop-color="#4DB6EE"/>
<stop offset="1" stop-color="#673FE2"/>
</linearGradient>
</defs>
</svg>
