<svg width="372" height="299" viewBox="0 0 372 299" fill="none" xmlns="http://www.w3.org/2000/svg">
<path d="M49.0163 75.0101L11.8768 125.439L92.3599 157.689L115.858 82.1075L49.0163 75.0101Z" fill="url(#paint0_linear)"/>
<path d="M283.498 28.4734L337.169 60.755L275.313 121.13L224.318 60.5025L283.498 28.4734Z" fill="url(#paint1_linear)"/>
<path d="M283.498 28.4733L277.774 31.5709L298.236 98.7545L337.169 60.7549L283.498 28.4733Z" fill="url(#paint2_linear)"/>
<path d="M224.63 60.33L251.888 92.9892L266.094 38.0947L224.63 60.33Z" fill="url(#paint3_linear)"/>
<path d="M92.3604 157.689L183.879 139.422L275.395 121.156L250.014 90.7426L224.63 60.3303L170.243 71.2193L115.859 82.1077L104.108 119.899L92.3604 157.689Z" fill="url(#paint4_radial)"/>
<path d="M92.3598 157.689L275.394 121.155L208.768 265.528L92.3598 157.689Z" fill="url(#paint5_linear)"/>
<path d="M92.3598 157.689L275.394 121.155L208.768 265.528L92.3598 157.689Z" fill="url(#paint6_radial)"/>
<path d="M11.8765 125.439L208.768 265.528L92.3596 157.689L11.8765 125.439Z" fill="url(#paint7_linear)"/>
<path d="M337.169 60.7549L209.238 265.756L275.313 121.13L337.169 60.7549Z" fill="url(#paint8_linear)"/>
<path d="M221.532 21.5818L283.934 28.5285L224.63 60.3301L115.858 82.1075L49.0165 75.0101L104.071 44.8229L221.532 21.5818Z" fill="url(#paint9_linear)"/>
<path d="M104.071 44.8229L49.0165 75.0101L87.946 79.1455L120.445 41.5831L104.071 44.8229Z" fill="url(#paint10_linear)"/>
<path d="M161.37 33.4851L141.409 76.9896L193.345 66.5925L193.855 27.0576L161.37 33.4851Z" fill="url(#paint11_linear)"/>
<path d="M283.933 28.5286L221.531 21.5818L208.969 24.0674L223.031 60.6498L224.629 60.3302L283.933 28.5286Z" fill="url(#paint12_linear)"/>
<path style="mix-blend-mode:multiply" d="M115.858 82.1076L183.879 139.422L92.3601 157.689L115.858 82.1076Z" fill="url(#paint13_linear)"/>
<path style="mix-blend-mode:multiply" d="M224.629 60.3302L183.879 139.422L275.394 121.156L224.629 60.3302Z" fill="url(#paint14_linear)"/>
<path style="mix-blend-mode:multiply" d="M92.3604 157.689L224.63 60.3303L275.395 121.156L92.3604 157.689Z" fill="url(#paint15_linear)"/>
<path style="mix-blend-mode:multiply" d="M49.0163 75.0101L92.3599 157.689L11.8768 125.439L49.0163 75.0101Z" fill="url(#paint16_linear)"/>
<path d="M49.0165 75.0101L244.279 24.1153L221.532 21.5818L104.071 44.8229L49.0165 75.0101Z" fill="url(#paint17_linear)"/>
<path opacity="0.29" d="M209.238 265.756L145.74 147.034L92.36 157.689L209.238 265.756Z" fill="url(#paint18_linear)"/>
<path opacity="0.52" d="M209.238 265.756L275.394 121.155L214.1 133.39L209.238 265.756Z" fill="url(#paint19_linear)"/>
<path d="M283.934 28.5284C279.081 31.336 274.192 34.0785 269.313 36.8396C264.434 39.6007 259.533 42.3213 254.632 45.0418L239.933 53.2027L225.166 61.2426L225.047 61.3075L224.908 61.3351C215.842 63.1461 206.796 65.043 197.717 66.7843L170.487 72.0546C165.954 72.9515 161.407 73.7753 156.859 74.6164L143.222 77.1316C138.681 77.9886 134.124 78.7798 129.574 79.587C125.023 80.3942 120.469 81.202 115.909 81.9626C120.415 80.9295 124.93 79.9429 129.449 78.9556C133.967 77.9683 138.479 76.9651 143.003 76.025L156.572 73.1641C161.098 72.2134 165.616 71.2434 170.149 70.3465L197.334 64.8501C206.393 63.0025 215.479 61.3117 224.551 59.5339L224.297 59.6257L239.131 51.7109L254.032 43.9277C258.999 41.3322 263.959 38.7174 268.953 36.1752C273.948 33.6329 278.919 31.0401 283.934 28.5284Z" fill="url(#paint20_linear)"/>
<path d="M208.769 265.528L201.297 258.988L193.861 252.406C188.899 248.026 183.956 243.622 179.033 239.195L164.284 225.883L149.598 212.516C144.714 208.064 139.82 203.611 134.966 199.112L120.37 185.648C110.69 176.62 100.975 167.629 91.3515 158.541L90.7196 157.948L90.9783 157.144C92.9919 150.857 95.0195 144.575 97.0609 138.301L103.226 119.49C105.286 113.218 107.386 106.957 109.524 100.707L112.697 91.3287L115.924 81.9669L113.242 91.5005L110.505 101.021C108.687 107.366 106.842 113.703 104.97 120.032L99.3031 139.004C97.4192 145.33 95.5068 151.646 93.5658 157.951L93.1926 156.554C102.987 165.46 112.682 174.454 122.423 183.436L136.952 196.968C141.804 201.471 146.619 206.013 151.442 210.546L165.88 224.175L180.259 237.872C185.053 242.448 189.819 247.044 194.556 251.657L201.684 258.569L208.769 265.528Z" fill="url(#paint21_linear)"/>
<path d="M321.701 75.8328C316.442 80.7734 311.208 85.7388 306 90.7292L290.339 105.666C285.326 110.422 280.38 115.234 275.407 120.034L250.472 90.5273L237.627 75.4567L224.73 60.4345L237.153 75.851L249.64 91.2272L273.785 120.755L229.389 129.412C221.754 130.881 214.132 132.431 206.506 133.964L183.631 138.556C176.011 140.098 168.374 141.574 160.763 143.177L137.913 147.895C130.296 149.46 122.683 151.051 115.074 152.67C107.468 154.285 99.856 155.884 92.2567 157.55C99.9304 156.191 107.566 154.777 115.214 153.374C122.862 151.971 130.511 150.544 138.15 149.091L161.074 144.752C168.734 143.32 176.346 141.789 183.98 140.317L206.88 135.851C214.523 134.339 222.152 132.895 229.771 131.346L273.817 122.503L257.81 156.955L241.267 193.055C238.496 199.067 235.757 205.093 233.05 211.133L224.89 229.234C222.156 235.263 219.455 241.307 216.788 247.365C214.121 253.422 211.447 259.477 208.765 265.528C211.673 259.58 214.533 253.613 217.396 247.642C220.258 241.671 223.126 235.709 225.936 229.721L234.423 211.77C237.264 205.79 240.075 199.798 242.856 193.794L259.612 157.789L276.104 121.847C281.218 116.836 286.37 111.873 291.434 106.824L306.826 91.6052C311.964 86.5412 317.082 81.4559 322.18 76.3493C327.282 71.2474 332.395 66.1575 337.449 61.0202C332.194 65.9279 326.952 70.8846 321.701 75.8328Z" fill="url(#paint22_linear)"/>
<path d="M11.8765 125.439L22.0271 129.198L32.1544 133.013L42.283 136.817C45.6648 138.079 49.0105 139.402 52.3736 140.692L72.5621 148.476L82.6567 152.37L92.7358 156.309L91.9899 156.239L114.849 151.585L137.727 147.01L160.621 142.515L183.526 138.079C191.18 136.62 198.801 135.133 206.45 133.737L229.393 129.487L240.866 127.362L252.352 125.324L263.843 123.289L275.342 121.311L263.956 123.86L252.556 126.354L241.198 128.85L229.781 131.255L206.948 136.059C199.343 137.681 191.717 139.211 184.098 140.777L161.229 145.399L138.349 149.96L115.442 154.458L92.5326 158.86L92.1372 158.938L91.784 158.794L81.7583 154.689L71.7579 150.556L51.7565 142.285C48.4261 140.899 45.0818 139.548 41.7628 138.132L31.7951 133.92L21.8241 129.708L11.8765 125.439Z" fill="url(#paint23_linear)"/>
<path d="M210.998 62.4681C206.432 63.1988 201.859 63.9103 197.303 64.6909C192.747 65.4714 188.181 66.2195 183.635 67.0499C179.089 67.8803 174.525 68.6383 169.981 69.496L156.346 72.0212L142.732 74.6527C138.193 75.5164 133.663 76.4472 129.13 77.3441L116.059 79.9993L107.74 79.1763C104.954 78.8849 102.159 78.6679 99.3701 78.415L90.9945 77.6756L82.6107 77.0173C79.8168 76.7896 77.0204 76.5843 74.2215 76.4014C71.4222 76.2163 68.6169 76.0012 65.8235 75.846C60.2315 75.509 54.6208 75.1998 49.0098 75.0288C54.542 76.0062 60.0772 76.8587 65.6371 77.6786C68.412 78.1069 71.191 78.4687 73.9666 78.8657C76.7423 79.2628 79.5233 79.6346 82.299 79.9798L90.6387 81.0612L98.9846 82.0517C101.767 82.3783 104.545 82.7368 107.335 83.0276L113.275 83.6756C112.52 86.0558 111.765 88.4361 111.039 90.8244L108.152 100.302C107.166 103.45 106.253 106.621 105.311 109.784C104.369 112.947 103.42 116.108 102.522 119.284L99.8081 128.799L97.1847 138.352L94.6563 147.931C93.8432 151.135 93.0261 154.335 92.272 157.558C93.4902 154.482 94.6452 151.383 95.801 148.289L99.1819 138.986L102.468 129.64L105.666 120.271C106.737 117.148 107.742 114.006 108.787 110.875C109.832 107.743 110.87 104.613 111.856 101.465L114.859 92.0301C115.76 89.2376 116.621 86.4323 117.482 83.6271L129.9 81.2356C134.437 80.362 138.978 79.4877 143.502 78.5442L157.093 75.7964L170.662 72.9389C175.19 72.0014 179.701 70.9916 184.219 70.0009C188.737 69.0103 193.243 67.9978 197.752 66.9607C202.26 65.9235 206.761 64.8638 211.261 63.8007C215.761 62.7377 220.251 61.6041 224.732 60.4447C220.146 61.0735 215.568 61.748 210.998 62.4681Z" fill="url(#paint24_linear)"/>
<path style="mix-blend-mode:screen" d="M128.685 92.3741C133.599 85.0349 131.634 75.1011 124.294 70.1864C116.955 65.2718 107.021 67.2373 102.107 74.5766C97.1921 81.9158 99.1577 91.8496 106.497 96.7643C113.836 101.679 123.77 99.7134 128.685 92.3741Z" fill="url(#paint25_radial)"/>
<path style="mix-blend-mode:screen" d="M116.576 87.9299C116.599 87.06 116.931 86.2267 117.512 85.5786C118.092 84.9305 118.884 84.5097 119.747 84.3913L137.17 82.0041L119.603 81.5361C118.731 81.5157 117.894 81.1851 117.244 80.6037C116.594 80.0223 116.172 79.2282 116.054 78.3637L113.663 60.9414L113.188 78.5233C113.164 79.3932 112.833 80.2265 112.252 80.8746C111.671 81.5227 110.879 81.9434 110.017 82.0619L92.5939 84.4491L110.172 84.925C111.043 84.9479 111.876 85.2794 112.524 85.8603C113.173 86.4412 113.593 87.2337 113.711 88.0961L116.102 105.522L116.576 87.9299Z" fill="url(#paint26_radial)"/>
<path style="mix-blend-mode:screen" d="M102.541 156.154C102.601 154.576 102.192 153.015 101.365 151.669C100.538 150.323 99.3308 149.253 97.8955 148.593C96.4601 147.934 94.8614 147.715 93.3016 147.964C91.7417 148.214 90.2909 148.92 89.1327 149.994C87.9744 151.068 87.1607 152.462 86.7946 153.998C86.4285 155.535 86.5264 157.146 87.0759 158.627C87.6253 160.108 88.6018 161.392 89.8815 162.318C91.1613 163.244 92.687 163.77 94.2655 163.828C96.3802 163.907 98.4396 163.143 99.9913 161.704C101.543 160.265 102.46 158.269 102.541 156.154Z" fill="url(#paint27_radial)"/>
<defs>
<linearGradient id="paint0_linear" x1="76.9856" y1="92.3441" x2="49.4186" y2="146.909" gradientUnits="userSpaceOnUse">
<stop stop-color="#7CC4F4"/>
<stop offset="0.54" stop-color="#73B0F4"/>
<stop offset="1" stop-color="#699BF4"/>
</linearGradient>
<linearGradient id="paint1_linear" x1="229.249" y1="84.9162" x2="337.63" y2="63.0388" gradientUnits="userSpaceOnUse">
<stop stop-color="#3872D6"/>
<stop offset="0.37" stop-color="#3268DD"/>
<stop offset="0.99" stop-color="#224FEF"/>
<stop offset="1" stop-color="#224EEF"/>
</linearGradient>
<linearGradient id="paint2_linear" x1="57999.6" y1="17463" x2="48101.5" y2="17678.9" gradientUnits="userSpaceOnUse">
<stop stop-color="#3872D6"/>
<stop offset="0.37" stop-color="#3268DD"/>
<stop offset="0.99" stop-color="#224FEF"/>
<stop offset="1" stop-color="#224EEF"/>
</linearGradient>
<linearGradient id="paint3_linear" x1="42879" y1="14396.2" x2="35035.9" y2="9292.58" gradientUnits="userSpaceOnUse">
<stop stop-color="#3872D6"/>
<stop offset="0.37" stop-color="#3268DD"/>
<stop offset="0.99" stop-color="#224FEF"/>
<stop offset="1" stop-color="#224EEF"/>
</linearGradient>
<radialGradient id="paint4_radial" cx="0" cy="0" r="1" gradientUnits="userSpaceOnUse" gradientTransform="translate(243.797 122.048) rotate(-11.1922) scale(131.3)">
<stop stop-color="#52F7FA"/>
<stop offset="1" stop-color="#456FFF"/>
</radialGradient>
<linearGradient id="paint5_linear" x1="183.453" y1="137.796" x2="216.931" y2="265.612" gradientUnits="userSpaceOnUse">
<stop offset="0.01" stop-color="#0D61D1"/>
<stop offset="0.29" stop-color="#166DE2"/>
<stop offset="0.7" stop-color="#207AF4"/>
<stop offset="1" stop-color="#237FFA"/>
</linearGradient>
<radialGradient id="paint6_radial" cx="0" cy="0" r="1" gradientUnits="userSpaceOnUse" gradientTransform="translate(108721 35334.9) rotate(-11.1922) scale(84359.5 58167.4)">
<stop stop-color="#52F7FA"/>
<stop offset="1" stop-color="#456FFF"/>
</radialGradient>
<linearGradient id="paint7_linear" x1="43.5474" y1="134.83" x2="153.014" y2="220.867" gradientUnits="userSpaceOnUse">
<stop offset="0.01" stop-color="#004294"/>
<stop offset="0.25" stop-color="#0048A2"/>
<stop offset="0.69" stop-color="#0050B4"/>
<stop offset="1" stop-color="#0053BA"/>
</linearGradient>
<linearGradient id="paint8_linear" x1="311.217" y1="82.388" x2="247.182" y2="192.317" gradientUnits="userSpaceOnUse">
<stop stop-color="#1837C7"/>
<stop offset="0.2" stop-color="#1634BF"/>
<stop offset="0.51" stop-color="#102CAA"/>
<stop offset="0.88" stop-color="#071E86"/>
<stop offset="1" stop-color="#04197A"/>
</linearGradient>
<linearGradient id="paint9_linear" x1="49.1145" y1="75.5053" x2="284.032" y2="29.0237" gradientUnits="userSpaceOnUse">
<stop stop-color="#B8DEE1"/>
<stop offset="0.22" stop-color="#AED9E5"/>
<stop offset="0.58" stop-color="#94CCEF"/>
<stop offset="1" stop-color="#6EB9FF"/>
</linearGradient>
<linearGradient id="paint10_linear" x1="26027" y1="2567.87" x2="70459.7" y2="-4291.77" gradientUnits="userSpaceOnUse">
<stop stop-color="#B8DEE1"/>
<stop offset="0.22" stop-color="#AED9E5"/>
<stop offset="0.58" stop-color="#94CCEF"/>
<stop offset="1" stop-color="#6EB9FF"/>
</linearGradient>
<linearGradient id="paint11_linear" x1="21629.3" y1="5865.1" x2="57043.7" y2="-171.248" gradientUnits="userSpaceOnUse">
<stop stop-color="#B8DEE1"/>
<stop offset="0.22" stop-color="#AED9E5"/>
<stop offset="0.58" stop-color="#94CCEF"/>
<stop offset="1" stop-color="#6EB9FF"/>
</linearGradient>
<linearGradient id="paint12_linear" x1="25368.9" y1="4957.11" x2="67492.1" y2="-1999.71" gradientUnits="userSpaceOnUse">
<stop stop-color="#B8DEE1"/>
<stop offset="0.22" stop-color="#AED9E5"/>
<stop offset="0.58" stop-color="#94CCEF"/>
<stop offset="1" stop-color="#6EB9FF"/>
</linearGradient>
<linearGradient id="paint13_linear" x1="169.93" y1="159.017" x2="101.79" y2="118.52" gradientUnits="userSpaceOnUse">
<stop stop-color="white"/>
<stop offset="0.27" stop-color="#FCFCFF"/>
<stop offset="0.49" stop-color="#F1F4FF"/>
<stop offset="0.7" stop-color="#E0E7FF"/>
<stop offset="0.9" stop-color="#C8D4FF"/>
<stop offset="1" stop-color="#B8C8FF"/>
</linearGradient>
<linearGradient id="paint14_linear" x1="68042.9" y1="24554.5" x2="68537.7" y2="9395.58" gradientUnits="userSpaceOnUse">
<stop stop-color="white"/>
<stop offset="0.27" stop-color="#FCFCFF"/>
<stop offset="0.49" stop-color="#F1F4FF"/>
<stop offset="0.7" stop-color="#E0E7FF"/>
<stop offset="0.9" stop-color="#C8D4FF"/>
<stop offset="1" stop-color="#B8C8FF"/>
</linearGradient>
<linearGradient id="paint15_linear" x1="59215.9" y1="24549.9" x2="125751" y2="-28839.5" gradientUnits="userSpaceOnUse">
<stop stop-color="white"/>
<stop offset="0.27" stop-color="#FCFCFF"/>
<stop offset="0.49" stop-color="#F1F4FF"/>
<stop offset="0.7" stop-color="#E0E7FF"/>
<stop offset="0.9" stop-color="#C8D4FF"/>
<stop offset="1" stop-color="#B8C8FF"/>
</linearGradient>
<linearGradient id="paint16_linear" x1="22668.5" y1="28243.2" x2="16101.2" y2="37018" gradientUnits="userSpaceOnUse">
<stop stop-color="white"/>
<stop offset="0.27" stop-color="#FCFCFF"/>
<stop offset="0.49" stop-color="#F1F4FF"/>
<stop offset="0.7" stop-color="#E0E7FF"/>
<stop offset="0.9" stop-color="#C8D4FF"/>
<stop offset="1" stop-color="#B8C8FF"/>
</linearGradient>
<linearGradient id="paint17_linear" x1="47.0662" y1="64.2106" x2="245.068" y2="28.4865" gradientUnits="userSpaceOnUse">
<stop stop-color="#CDE0E1"/>
<stop offset="0.22" stop-color="#C3DCE5"/>
<stop offset="0.59" stop-color="#A9D2F0"/>
<stop offset="1" stop-color="#85C4FF"/>
</linearGradient>
<linearGradient id="paint18_linear" x1="60784.6" y1="110376" x2="41992.4" y2="47752.3" gradientUnits="userSpaceOnUse">
<stop offset="0.01" stop-color="#0D61D1"/>
<stop offset="0.29" stop-color="#166DE2"/>
<stop offset="0.7" stop-color="#207AF4"/>
<stop offset="1" stop-color="#237FFA"/>
</linearGradient>
<linearGradient id="paint19_linear" x1="260.234" y1="259.371" x2="215.024" y2="93.0484" gradientUnits="userSpaceOnUse">
<stop stop-color="#0E67DE"/>
<stop offset="0.25" stop-color="#1C73E8"/>
<stop offset="0.69" stop-color="#2E83F5"/>
<stop offset="1" stop-color="#3489FA"/>
</linearGradient>
<linearGradient id="paint20_linear" x1="220.053" y1="46.8177" x2="280.978" y2="16.315" gradientUnits="userSpaceOnUse">
<stop stop-color="#ADC3F0"/>
<stop offset="0.45" stop-color="#80A4F0"/>
<stop offset="0.8" stop-color="#6391F0"/>
<stop offset="1" stop-color="#598AF0"/>
</linearGradient>
<linearGradient id="paint21_linear" x1="49055.1" y1="83232.7" x2="107803" y2="108164" gradientUnits="userSpaceOnUse">
<stop stop-color="#ADC3F0"/>
<stop offset="0.45" stop-color="#80A4F0"/>
<stop offset="0.8" stop-color="#6391F0"/>
<stop offset="1" stop-color="#598AF0"/>
</linearGradient>
<linearGradient id="paint22_linear" x1="222310" y1="86101.5" x2="209257" y2="74187.8" gradientUnits="userSpaceOnUse">
<stop stop-color="#ADC3F0"/>
<stop offset="0.45" stop-color="#80A4F0"/>
<stop offset="0.8" stop-color="#6391F0"/>
<stop offset="1" stop-color="#598AF0"/>
</linearGradient>
<linearGradient id="paint23_linear" x1="70878.9" y1="8632.68" x2="198356" y2="-6872.89" gradientUnits="userSpaceOnUse">
<stop stop-color="#ADC3F0"/>
<stop offset="0.45" stop-color="#80A4F0"/>
<stop offset="0.8" stop-color="#6391F0"/>
<stop offset="1" stop-color="#598AF0"/>
</linearGradient>
<linearGradient id="paint24_linear" x1="90.1777" y1="72.9715" x2="186.292" y2="123.643" gradientUnits="userSpaceOnUse">
<stop stop-color="white"/>
<stop offset="0.44" stop-color="#D4DFF7"/>
<stop offset="0.79" stop-color="#B7CBF2"/>
<stop offset="1" stop-color="#ADC3F0"/>
</linearGradient>
<radialGradient id="paint25_radial" cx="0" cy="0" r="1" gradientUnits="userSpaceOnUse" gradientTransform="translate(115.394 83.4782) rotate(33.8078) scale(15.9932)">
<stop stop-color="white"/>
<stop offset="0.22" stop-color="#B4B4B4"/>
<stop offset="0.43" stop-color="#747474"/>
<stop offset="0.61" stop-color="#424242"/>
<stop offset="0.78" stop-color="#1E1E1E"/>
<stop offset="0.91" stop-color="#080808"/>
<stop offset="0.99"/>
</radialGradient>
<radialGradient id="paint26_radial" cx="0" cy="0" r="1" gradientUnits="userSpaceOnUse" gradientTransform="translate(114.884 83.2317) rotate(33.8078) scale(17.8429)">
<stop stop-color="white"/>
<stop offset="0.09" stop-color="#F1F1F1"/>
<stop offset="0.26" stop-color="#CDCDCD"/>
<stop offset="0.49" stop-color="#939393"/>
<stop offset="0.78" stop-color="#434343"/>
<stop offset="0.99"/>
</radialGradient>
<radialGradient id="paint27_radial" cx="0" cy="0" r="1" gradientUnits="userSpaceOnUse" gradientTransform="translate(-7033.78 12325.9) rotate(33.8078) scale(376.402 376.402)">
<stop stop-color="white"/>
<stop offset="0.22" stop-color="#B4B4B4"/>
<stop offset="0.43" stop-color="#747474"/>
<stop offset="0.61" stop-color="#424242"/>
<stop offset="0.78" stop-color="#1E1E1E"/>
<stop offset="0.91" stop-color="#080808"/>
<stop offset="0.99"/>
</radialGradient>
</defs>
</svg>
