<svg width="521" height="412" viewBox="0 0 521 412" fill="none" xmlns="http://www.w3.org/2000/svg">
<path d="M95.8179 181.438L307.463 358.028L443.515 358.744C445.1 358.29 447.207 355.816 447.144 354.448C444.926 305.864 433.023 251.891 424.462 224.969L209.898 45.2432L77.987 45.2199C76.69 45.2392 74.0646 48.3735 74.3431 49.5691L95.8179 181.438Z" fill="#A8BFFF"/>
<path d="M209.317 44.4889C224.168 76.7763 257.077 125.287 291.446 166.164C337.676 192.749 391.2 216.237 425.5 225.081C410.656 192.791 378.005 144.137 343.635 103.26C297.403 76.6793 243.619 53.328 209.317 44.4889Z" fill="url(#paint0_linear)"/>
<path d="M357.561 120.362C386.613 157.136 412.698 197.203 425.494 225.079C412.321 221.681 396.446 216.224 379.071 209.138C373.557 177.642 364.389 143.651 357.561 120.362Z" fill="url(#paint1_linear)"/>
<path d="M425.5 225.081C394.527 188.174 308.781 93.2434 210.789 47.1404C210.319 46.1493 209.76 45.4452 209.317 44.4889C243.619 53.328 297.403 76.6793 343.635 103.26C378.005 144.137 410.656 192.791 425.5 225.081Z" fill="url(#paint2_linear)"/>
<path d="M310.481 176.722C304.048 173.273 297.68 169.749 291.448 166.164C275.076 146.698 259.07 125.436 245.178 105.02C260.099 95.2092 277.923 84.0775 292.696 76.5626C305.51 82.6792 318.467 89.2973 331.07 96.2174C326.23 116.622 318.292 149.093 310.481 176.722Z" fill="url(#paint3_linear)"/>
<path d="M447.144 354.448C386.909 347.477 290.007 306.789 211.246 261.064L290.989 165.796C337.221 192.376 391.183 216.236 425.482 225.08C433.474 251.953 446.723 316.295 447.144 354.448Z" fill="url(#paint4_linear)"/>
<path style="mix-blend-mode:screen" d="M421.919 223.958C423.045 224.271 424.429 224.808 425.52 225.089C433.507 251.96 446.407 315.501 447.185 354.464C395.05 348.428 315.439 317.134 243.909 279.173C324.181 276.519 393.127 245.615 421.919 223.958Z" fill="url(#paint5_linear)"/>
<path d="M207.621 265.414C290.254 308.02 386.929 348.852 443.536 358.752C405.064 367.309 336.985 368.267 309.296 364.177C274.996 355.332 218.442 334.245 172.219 307.644L207.621 265.414Z" fill="url(#paint6_linear)"/>
<path d="M443.515 358.744C410.243 366.2 354.944 367.866 322.669 365.59C317.546 348.024 312.327 330.349 307.011 312.565C359.284 335.05 408.86 352.744 443.515 358.744Z" fill="url(#paint7_linear)"/>
<path style="mix-blend-mode:screen" opacity="0.49" d="M207.621 265.414C290.254 308.02 386.929 348.852 443.536 358.752C405.064 367.309 336.985 368.267 309.296 364.177C274.996 355.332 218.442 334.245 172.219 307.644L207.621 265.414Z" fill="url(#paint8_linear)"/>
<path d="M77.9042 45.1579C94.5334 101.329 150.562 190.121 211.196 261.009L291.007 165.797C256.734 124.945 224.042 76.7034 209.318 44.4888C181.45 41.3452 116.373 39.0718 77.9042 45.1579Z" fill="url(#paint9_linear)"/>
<path style="mix-blend-mode:multiply" d="M209.318 44.489C210.715 47.5331 212.296 50.2566 213.995 53.5785C191.027 103.715 182.262 165.784 180.067 222.549C132.2 160.131 91.6349 91.5334 77.9048 45.1581C116.374 39.072 181.451 41.3454 209.318 44.489Z" fill="url(#paint10_linear)"/>
<path style="mix-blend-mode:screen" opacity="0.49" d="M268.385 137.408L175.215 216.172C146.662 178.297 120.987 138.52 102.533 103.086L229.393 80.7364C240.41 98.6877 253.879 118.281 268.385 137.408Z" fill="url(#paint11_linear)"/>
<path style="mix-blend-mode:screen" opacity="0.29" d="M282.369 155.294C285.236 158.837 288.115 162.35 291.013 165.781L211.203 260.994C154.675 194.927 102.201 113.339 81.8529 57.0725C169.845 115.842 239.337 144.3 282.369 155.294Z" fill="url(#paint12_linear)"/>
<path d="M207.553 265.358C150.274 190.681 93.1367 102.997 74.2602 49.5072C72.5837 88.8838 83.6283 156.055 92.5129 182.573C107.235 214.793 137.933 266.764 172.205 307.615L207.553 265.358Z" fill="url(#paint13_linear)"/>
<path d="M207.553 265.358L172.197 307.636C169.691 304.643 167.206 301.596 164.742 298.496C148.425 257.694 123.892 189.695 113.622 128.411C139.56 172.057 173.53 221.003 207.553 265.358Z" fill="url(#paint14_linear)"/>
<path d="M283.956 169.126C284.53 168.404 284.843 167.509 284.845 166.587C284.847 165.665 284.539 164.769 283.969 164.044C254.999 127.409 218.428 66.7388 207.959 48.4775C206.887 46.647 204.246 45.14 201.218 43.7088C203.99 43.9472 207.004 44.2202 209.307 44.4726C215.865 46.1714 223.036 48.362 230.821 51.0443C223.293 49.4817 216.782 48.344 215.115 48.2138C210.552 47.8618 263.6 131.153 292.872 163.306C324.83 183.138 412.601 219.187 419.472 220.084C424.747 220.778 384.921 158.725 359.356 123.454C387.567 159.455 412.962 197.887 425.489 225.065C433.546 248.695 445.931 301.732 446.532 341.625C440.735 301.937 428.422 229.11 420.818 226.763C394.157 218.526 337.695 197.017 297.163 172.899C296.014 172.219 294.666 171.957 293.346 172.157C292.026 172.357 290.816 173.007 289.921 173.997L211.185 260.993L283.956 169.126Z" fill="#D6DCFF"/>
<path d="M253.053 212.532C234.701 235.308 219.112 255.561 217.179 259.499C215.245 263.437 252.321 285.47 252.321 285.47C252.321 285.47 212.99 267.226 209.73 269.222C205.429 271.866 172.197 307.636 172.197 307.636C172.197 307.636 201.893 270.291 204.361 264.029C205.483 261.138 170.222 211.155 170.222 211.155C170.222 211.155 208.468 254.982 210.695 254.801C215.273 254.397 253.053 212.532 253.053 212.532Z" fill="#A8BFFF"/>
<path style="mix-blend-mode:screen" d="M171.642 247.028C175.718 238.899 182.114 232.161 190.02 227.666C197.926 223.172 206.987 221.123 216.058 221.779C225.129 222.435 233.801 225.766 240.978 231.352C248.155 236.937 253.515 244.525 256.379 253.157C259.243 261.788 259.483 271.075 257.068 279.843C254.654 288.611 249.693 296.466 242.814 302.414C235.935 308.362 227.447 312.137 218.422 313.261C209.397 314.384 200.242 312.806 192.115 308.726C181.22 303.258 172.943 293.686 169.104 282.116C165.265 270.546 166.178 257.925 171.642 247.028Z" fill="url(#paint15_radial)"/>
<g style="mix-blend-mode:screen" opacity="0.49">
<path d="M418.298 353.106C427.347 355.526 435.815 357.394 443.517 358.739C405.045 367.296 336.966 368.254 309.276 364.163C307.78 363.778 306.23 363.361 304.652 362.926C344.395 362.588 388.118 357.449 418.298 353.106Z" fill="#666666"/>
</g>
<path style="mix-blend-mode:screen" d="M263.749 163.786C266.024 148.975 279.875 138.812 294.685 141.087C309.496 143.362 319.659 157.212 317.384 172.023C315.109 186.834 301.259 196.997 286.448 194.722C271.637 192.447 261.474 178.596 263.749 163.786Z" fill="url(#paint16_radial)"/>
<path style="mix-blend-mode:screen" d="M285.168 173.578C285.839 172.265 286.023 170.757 285.687 169.321C285.352 167.886 284.518 166.615 283.335 165.735L259.341 147.95L285.876 161.594C287.189 162.267 288.698 162.452 290.134 162.116C291.57 161.781 292.841 160.946 293.719 159.761L311.504 135.767L297.866 162.304C297.194 163.617 297.009 165.125 297.345 166.561C297.681 167.997 298.515 169.268 299.699 170.147L323.662 187.92L297.127 174.276C295.814 173.603 294.305 173.418 292.869 173.754C291.433 174.09 290.162 174.924 289.284 176.109L271.499 200.103L285.168 173.578Z" fill="url(#paint17_radial)"/>
<defs>
<linearGradient id="paint0_linear" x1="-364471" y1="-56137.1" x2="-468516" y2="-143292" gradientUnits="userSpaceOnUse">
<stop stop-color="#B8DEE1"/>
<stop offset="0.22" stop-color="#AED9E5"/>
<stop offset="0.58" stop-color="#94CCEF"/>
<stop offset="1" stop-color="#6EB9FF"/>
</linearGradient>
<linearGradient id="paint1_linear" x1="-193773" y1="36997.8" x2="-196008" y2="22490.8" gradientUnits="userSpaceOnUse">
<stop stop-color="#B8DEE1"/>
<stop offset="0.22" stop-color="#AED9E5"/>
<stop offset="0.58" stop-color="#94CCEF"/>
<stop offset="1" stop-color="#6EB9FF"/>
</linearGradient>
<linearGradient id="paint2_linear" x1="-359764" y1="-61748.1" x2="-463813" y2="-148907" gradientUnits="userSpaceOnUse">
<stop stop-color="#CDE0E1"/>
<stop offset="0.22" stop-color="#C3DCE5"/>
<stop offset="0.59" stop-color="#A9D2F0"/>
<stop offset="1" stop-color="#85C4FF"/>
</linearGradient>
<linearGradient id="paint3_linear" x1="-215419" y1="57198.8" x2="-210380" y2="47192.3" gradientUnits="userSpaceOnUse">
<stop stop-color="#B8DEE1"/>
<stop offset="0.22" stop-color="#AED9E5"/>
<stop offset="0.58" stop-color="#94CCEF"/>
<stop offset="1" stop-color="#6EB9FF"/>
</linearGradient>
<linearGradient id="paint4_linear" x1="-382801" y1="27703.3" x2="-466790" y2="44718.3" gradientUnits="userSpaceOnUse">
<stop stop-color="#7CC4F4"/>
<stop offset="0.54" stop-color="#73B0F4"/>
<stop offset="1" stop-color="#699BF4"/>
</linearGradient>
<linearGradient id="paint5_linear" x1="441.694" y1="288.248" x2="250.644" y2="314.188" gradientUnits="userSpaceOnUse">
<stop offset="0.03" stop-color="#4A4A4A"/>
<stop offset="0.39" stop-color="#313131"/>
<stop offset="1"/>
</linearGradient>
<linearGradient id="paint6_linear" x1="-295197" y1="-71041.4" x2="-385651" y2="-146812" gradientUnits="userSpaceOnUse">
<stop offset="0.01" stop-color="#004294"/>
<stop offset="0.25" stop-color="#0048A2"/>
<stop offset="0.69" stop-color="#0050B4"/>
<stop offset="1" stop-color="#0053BA"/>
</linearGradient>
<linearGradient id="paint7_linear" x1="-183941" y1="-5586.26" x2="-210758" y2="-27970.3" gradientUnits="userSpaceOnUse">
<stop offset="0.01" stop-color="#004294"/>
<stop offset="0.25" stop-color="#0048A2"/>
<stop offset="0.69" stop-color="#0050B4"/>
<stop offset="1" stop-color="#0053BA"/>
</linearGradient>
<linearGradient id="paint8_linear" x1="316.031" y1="315.321" x2="293.225" y2="364.915" gradientUnits="userSpaceOnUse">
<stop stop-color="#BFBFBF"/>
<stop offset="0.68" stop-color="#3A3A3A"/>
<stop offset="1"/>
</linearGradient>
<linearGradient id="paint9_linear" x1="-631020" y1="59287.3" x2="-541302" y2="102164" gradientUnits="userSpaceOnUse">
<stop stop-color="#3872D6"/>
<stop offset="0.37" stop-color="#3268DD"/>
<stop offset="0.99" stop-color="#224FEF"/>
<stop offset="1" stop-color="#224EEF"/>
</linearGradient>
<linearGradient id="paint10_linear" x1="195.772" y1="209.591" x2="142.359" y2="38.0965" gradientUnits="userSpaceOnUse">
<stop stop-color="#E0FBFF"/>
<stop offset="0.08" stop-color="#D6F4FF"/>
<stop offset="0.7" stop-color="#8DBDFF"/>
<stop offset="0.99" stop-color="#70A7FF"/>
</linearGradient>
<linearGradient id="paint11_linear" x1="185.698" y1="101.072" x2="183.866" y2="218.81" gradientUnits="userSpaceOnUse">
<stop stop-color="#666666"/>
<stop offset="0.28" stop-color="#4D4D4D"/>
<stop offset="0.87" stop-color="#0E0E0E"/>
<stop offset="1"/>
</linearGradient>
<linearGradient id="paint12_linear" x1="186.704" y1="89.8393" x2="183.986" y2="264.283" gradientUnits="userSpaceOnUse">
<stop stop-color="white"/>
<stop offset="0.03" stop-color="#F2F2F2"/>
<stop offset="0.25" stop-color="#AAAAAA"/>
<stop offset="0.44" stop-color="#6D6D6D"/>
<stop offset="0.62" stop-color="#3E3E3E"/>
<stop offset="0.78" stop-color="#1C1C1C"/>
<stop offset="0.91" stop-color="#070707"/>
<stop offset="1"/>
</linearGradient>
<linearGradient id="paint13_linear" x1="-560590" y1="114350" x2="-547207" y2="198931" gradientUnits="userSpaceOnUse">
<stop stop-color="#1837C7"/>
<stop offset="0.2" stop-color="#1634BF"/>
<stop offset="0.51" stop-color="#102CAA"/>
<stop offset="0.88" stop-color="#071E86"/>
<stop offset="1" stop-color="#04197A"/>
</linearGradient>
<linearGradient id="paint14_linear" x1="180.753" y1="153.748" x2="120.912" y2="281.447" gradientUnits="userSpaceOnUse">
<stop stop-color="#2D4AD4"/>
<stop offset="0.27" stop-color="#2A46CC"/>
<stop offset="0.68" stop-color="#223CB7"/>
<stop offset="1" stop-color="#1A32A1"/>
</linearGradient>
<radialGradient id="paint15_radial" cx="0" cy="0" r="1" gradientUnits="userSpaceOnUse" gradientTransform="translate(-186617 141810) rotate(174.952) scale(7631.25 7631.24)">
<stop stop-color="white"/>
<stop offset="0.22" stop-color="#B4B4B4"/>
<stop offset="0.43" stop-color="#747474"/>
<stop offset="0.61" stop-color="#424242"/>
<stop offset="0.78" stop-color="#1E1E1E"/>
<stop offset="0.91" stop-color="#080808"/>
<stop offset="0.99"/>
</radialGradient>
<radialGradient id="paint16_radial" cx="0" cy="0" r="1" gradientUnits="userSpaceOnUse" gradientTransform="translate(-102237 73952.1) rotate(174.952) scale(2658.38 2658.38)">
<stop stop-color="white"/>
<stop offset="0.22" stop-color="#B4B4B4"/>
<stop offset="0.43" stop-color="#747474"/>
<stop offset="0.61" stop-color="#424242"/>
<stop offset="0.78" stop-color="#1E1E1E"/>
<stop offset="0.91" stop-color="#080808"/>
<stop offset="0.99"/>
</radialGradient>
<radialGradient id="paint17_radial" cx="0" cy="0" r="1" gradientUnits="userSpaceOnUse" gradientTransform="translate(-140318 101371) rotate(174.952) scale(4067.44 4068.95)">
<stop stop-color="white"/>
<stop offset="0.09" stop-color="#F1F1F1"/>
<stop offset="0.26" stop-color="#CDCDCD"/>
<stop offset="0.49" stop-color="#939393"/>
<stop offset="0.78" stop-color="#434343"/>
<stop offset="0.99"/>
</radialGradient>
</defs>
</svg>
