<svg width="1600" height="927" viewBox="0 0 1600 927" fill="none" xmlns="http://www.w3.org/2000/svg">
<g filter="url(#filter0_d)">
<path d="M-16.7064 328.255C-29.3116 322.299 -43.6163 319.052 -49.193 318.172L-36.2487 532.22C-17.8118 531.784 22.0624 531.169 34.064 532.199C49.0661 533.486 134.49 529.27 157.865 528.75C176.565 528.333 190.341 530.239 194.891 531.244C177.384 505.263 139.609 449.889 128.561 436.242C114.752 419.184 70.686 384.737 60.8987 374.999C51.1114 365.26 -0.949864 335.7 -16.7064 328.255Z" fill="url(#paint0_linear)"/>
</g>
<g filter="url(#filter1_dd)">
<path d="M252.134 526.575C219.057 521.877 179.954 490.104 164.537 474.805L157.044 471.036C165.381 483.817 183.57 511.537 189.628 520.17C197.2 530.962 228.667 564.608 240.56 578.776C252.453 592.945 297.711 611.619 337.031 620.083C376.351 628.547 426.712 605.97 458.207 588.829C483.403 575.117 586.471 477.277 604.163 453.754C599.027 456.467 524.439 510.868 512.727 517.303C498.087 525.347 439.289 536.458 396.672 539.335C354.054 542.213 293.48 532.447 252.134 526.575Z" fill="url(#paint1_linear)"/>
</g>
<g filter="url(#filter2_d)">
<path d="M585.014 456.881C574.219 465.704 525.153 523.072 501.968 550.654L498.78 556.513C505.498 549.7 520.513 534.943 526.834 530.419C534.735 524.763 587.749 479.203 614.516 468.111C667.409 446.192 714.314 483.041 745.971 520.757C757.864 534.926 788.312 592.135 801.917 613.906C827.635 655.059 893.491 691.332 940.994 696.87C964.547 706.269 1003.97 700.502 1007.07 700.494L971.263 669.723L958.381 666.614L890.974 658.466L864.974 631.181C849.735 608.829 817.745 560.715 811.699 547.08C804.142 530.037 770.317 477.148 755.549 458.644C740.781 440.14 695.885 430.796 665.111 428.317C634.337 425.837 598.507 445.853 585.014 456.881Z" fill="url(#paint2_linear)"/>
</g>
<g filter="url(#filter3_d)">
<path d="M899.724 659.738C931.874 650.069 1006.53 622.119 1047.93 587.67C1099.69 544.608 1140.21 492.766 1155.29 462.793C1170.37 432.819 1234.28 335.922 1246.64 315.657C1259.01 295.392 1282.06 266.784 1291.63 249.205C1301.19 231.626 1313.49 198.087 1318.33 186.556C1322.2 177.332 1327.42 167.213 1329.54 163.306C1324.45 191.533 1313.38 230.921 1306.59 269.249C1304.71 283.466 1302.35 301.265 1299.84 320.278C1298.61 332.677 1297.86 342.162 1297.26 346.175C1296.02 354.512 1296.73 346.084 1298.36 331.419C1290.72 389.165 1282.18 453.612 1281.01 462.233C1278.95 477.33 1254.14 555.373 1247.67 566.323C1241.2 577.272 1198.55 669.219 1114.12 700.659C1042.54 727.312 972.994 709.356 950.419 697.278C927.845 685.199 908.742 669.571 900.384 665.126C893.698 661.57 897.158 660.052 899.724 659.738Z" fill="url(#paint3_linear)"/>
</g>
<g filter="url(#filter4_d)">
<path d="M1377.35 94.343C1336.79 125.563 1315.13 205.095 1309.37 240.959L1306.56 249.897C1321.04 240.57 1357.69 220.819 1388.4 216.431C1426.79 210.946 1521.06 247.053 1559.31 259.555C1589.92 269.556 1700.67 327.134 1752.23 354.673C1741.13 251.341 1723.01 46.0797 1714.1 43.5294C1666.33 29.8506 1581.54 20.1036 1519.68 25.3392C1457.82 30.5749 1428.04 55.3185 1377.35 94.343Z" fill="url(#paint4_linear)"/>
</g>
<path d="M6.15069 342.643C-5.98963 335.38 -31.0597 323.764 -42.0772 318.863L-46.0049 312.313C-34.7308 317.182 -8.70462 328.525 5.2076 334.946C22.5979 342.972 69.9312 378.58 98.5387 401.638C127.146 424.697 158.504 463.825 183.704 503.708C203.864 535.614 232.709 563.592 244.612 573.592C263.482 594.438 299.597 609.986 332.522 615.167C348.471 617.676 359.444 615.281 375.423 614.598C424.387 612.505 467.945 579.042 484.234 565.327C500.523 551.612 531.89 507.923 558.515 476.535C585.139 445.147 619.414 431.572 634.526 427.377C649.638 423.181 663.518 423.803 704 429C750.153 435.846 783.953 486.415 793.819 503.176C803.685 519.936 828.006 565.396 860.103 616.934C892.2 668.472 939.02 690.465 966.794 700.344C994.568 710.222 1035.89 712.588 1059.94 711.204C1079.18 710.096 1105.3 699.699 1115.89 695.219C1132.31 688.274 1150.75 678.008 1170.19 661.278C1189.45 644.7 1203.35 630.474 1215.21 616.188C1239.04 587.487 1258.12 533.099 1261.61 520.418C1263.51 513.535 1270.48 489.793 1275.49 466.16C1280.95 440.413 1284.44 414.556 1285.67 404.629C1288.03 385.59 1294.01 338.761 1297.76 299.237C1301.51 259.714 1317.17 189.824 1331.3 152.153C1345.44 114.482 1380.23 85.9996 1415.4 60.5958C1450.57 35.192 1493.51 28.5812 1512.54 24.474C1529.29 20.8598 1595.47 19.0012 1614.41 20.5863C1629.57 21.8545 1664.18 29.3325 1679.98 32.8658L1714.1 43.5295C1686.64 38.3005 1628.96 26.0933 1617.38 25.6914C1602.47 25.1742 1563.33 24.5017 1503.38 32.6276C1443.44 40.7535 1390.43 86.313 1361.3 116.445C1338.01 140.55 1319 213.298 1312.41 246.659C1307.61 281.884 1298.17 366.587 1290.54 419.086C1287.84 437.714 1284.99 451.42 1282.67 464.984C1276.74 499.7 1270.42 525.493 1244.56 580.346C1223 626.073 1178.03 669.481 1138.44 691.807C1116.01 704.451 1094.2 710.93 1079.26 715.867C1054.73 723.981 1018.11 720.423 988.904 713.637C968.958 709.003 955.668 703.088 939.444 697.467C917.213 689.764 892.201 669.758 871.056 645.029C854.173 625.284 841.606 603.473 833.522 591.283C815.313 563.826 799.539 524.351 766.657 479.159C733.775 433.967 696.495 431.701 653.5 431.5C619.104 431.339 582.119 460.882 567.751 475.403L507.451 550.763C492.686 570.542 450.187 611.375 392.53 620.315C320.459 631.489 310.294 618.671 277.43 605.51C244.567 592.348 205.621 548.681 191.434 528.543C177.248 508.405 147.539 463.606 130.949 442.982C114.359 422.357 53.6879 373.539 50.2318 370.837C46.7756 368.135 21.3261 351.721 6.15069 342.643Z" fill="url(#paint5_radial)"/>
<path d="M1679.87 33.3537L1705.39 41.3315C1699.86 40.2451 1693.68 39.0107 1687.21 37.7196C1678.32 35.9443 1668.89 34.0619 1659.88 32.3095C1650.23 30.4315 1641.07 28.7036 1633.6 27.42C1626.15 26.1388 1620.34 25.2936 1617.4 25.1917C1602.47 24.6738 1563.29 24.0016 1503.32 32.1321C1443.19 40.2823 1390.08 85.954 1360.94 116.097C1355.06 122.18 1349.48 131.303 1344.31 142.052C1339.14 152.808 1334.37 165.225 1330.12 177.922C1321.62 203.316 1315.22 229.865 1311.92 246.562L1311.92 246.577L1311.92 246.591C1310.03 260.447 1307.43 281.927 1304.5 306.087C1299.98 343.413 1294.68 387.136 1290.05 419.014C1288.22 431.565 1286.34 441.871 1284.59 451.416C1283.75 456.032 1282.94 460.471 1282.18 464.9C1276.26 499.571 1269.95 525.32 1244.11 580.133C1222.6 625.752 1177.71 669.088 1138.19 691.371C1118.17 702.662 1098.63 709.025 1084.03 713.78C1082.32 714.338 1080.68 714.874 1079.11 715.393C1066.92 719.422 1051.7 720.562 1035.86 719.84C1020.02 719.118 1003.59 716.537 989.017 713.15C974.473 709.771 963.491 705.715 952.289 701.578C948.155 700.051 943.991 698.513 939.607 696.994C917.496 689.333 892.554 669.402 871.436 644.704C858.341 629.389 847.855 612.841 840.026 600.487C837.777 596.938 835.748 593.735 833.939 591.007C826.89 580.378 820.208 567.947 812.74 554.053C810.578 550.032 808.352 545.889 806.031 541.632C795.697 522.674 783.521 501.486 767.061 478.865C750.563 456.19 732.939 444.259 714.028 437.983C695.139 431.715 674.996 431.1 653.502 431C636.172 430.919 618.233 438.316 602.858 447.517C587.475 456.722 574.605 467.766 567.396 475.052L567.377 475.07L567.361 475.091L507.06 550.451L507.055 550.457L507.05 550.464C492.331 570.181 449.936 610.908 392.453 619.821C356.445 625.404 335.956 624.984 320.385 621.55C312.599 619.833 306.027 617.359 299.341 614.488C296.935 613.454 294.507 612.366 292.001 611.243C287.559 609.252 282.871 607.15 277.616 605.046C261.277 598.502 243.381 584.35 227.776 569.283C212.179 554.223 198.917 538.296 191.843 528.255C187.808 522.527 182.51 514.794 176.613 506.185C161.803 484.567 143.213 457.43 131.339 442.668C123.009 432.313 103.655 414.921 85.9903 399.808C68.3119 384.684 52.2744 371.799 50.5397 370.443C47.055 367.719 21.5785 351.29 6.40739 342.214C-5.70991 334.965 -30.6421 323.406 -41.7296 318.471L-44.777 313.388C-32.8607 318.543 -8.35001 329.239 4.99808 335.4C13.6403 339.388 29.7806 350.265 47.3726 363.059C64.9483 375.841 83.9269 390.503 98.2249 402.028C126.772 425.037 158.095 464.115 183.281 503.975C203.462 535.914 232.32 563.912 244.264 573.953C263.245 594.901 299.468 610.472 332.444 615.661C343.91 617.465 352.851 616.745 362.838 615.942C366.801 615.623 370.929 615.291 375.444 615.098C424.591 612.997 468.263 579.428 484.556 565.71C492.747 558.813 504.694 544.417 517.89 527.87C521.422 523.441 525.045 518.855 528.713 514.214C538.764 501.492 549.147 488.352 558.896 476.859C585.434 445.572 619.607 432.038 634.66 427.858C649.658 423.695 663.437 424.297 703.931 429.495C726.851 432.896 746.744 447.163 762.162 462.722C777.575 478.275 788.467 495.069 793.388 503.429C796.098 508.033 799.906 514.816 804.671 523.303C817.222 545.658 836.413 579.841 859.679 617.198C891.861 668.873 938.802 690.918 966.627 700.815C994.489 710.725 1035.89 713.089 1059.97 711.703C1079.31 710.59 1105.51 700.155 1116.09 695.679C1132.54 688.717 1151.03 678.425 1170.51 661.657C1189.79 645.063 1203.72 630.817 1215.6 616.508C1227.56 602.101 1238.31 581.277 1246.5 562.495C1254.69 543.708 1260.34 526.918 1262.1 520.55C1262.36 519.573 1262.74 518.254 1263.19 516.642C1265.93 506.921 1271.68 486.551 1275.98 466.263C1281.44 440.497 1284.94 414.624 1286.17 404.69C1286.43 402.593 1286.73 400.159 1287.07 397.434C1289.81 375.424 1294.92 334.462 1298.26 299.285C1302 259.802 1317.65 189.956 1331.77 152.329C1345.85 114.816 1380.51 86.4107 1415.69 61.0012C1447.13 38.2946 1484.8 30.6443 1506 26.3387C1508.44 25.8415 1510.67 25.3888 1512.65 24.9628C1520.97 23.167 1541.65 21.7988 1562.67 21.0801C1583.68 20.3618 1604.93 20.2948 1614.37 21.0846C1629.48 22.3487 1664.03 29.8107 1679.85 33.3491C1679.86 33.3507 1679.87 33.3522 1679.87 33.3537Z" stroke="url(#paint6_linear)" stroke-opacity="0.78"/>
<defs>
<filter id="filter0_d" x="-170.168" y="318.172" width="427.098" height="426.752" filterUnits="userSpaceOnUse" color-interpolation-filters="sRGB">
<feFlood flood-opacity="0" result="BackgroundImageFix"/>
<feColorMatrix in="SourceAlpha" type="matrix" values="0 0 0 0 0 0 0 0 0 0 0 0 0 0 0 0 0 0 127 0" result="hardAlpha"/>
<feOffset dx="-29.4683" dy="120.975"/>
<feGaussianBlur stdDeviation="45.7534"/>
<feComposite in2="hardAlpha" operator="out"/>
<feColorMatrix type="matrix" values="0 0 0 0 0 0 0 0 0 0 0 0 0 0 0 0 0 0 0.29 0"/>
<feBlend mode="normal" in2="BackgroundImageFix" result="effect1_dropShadow"/>
<feBlend mode="normal" in="SourceGraphic" in2="effect1_dropShadow" result="shape"/>
</filter>
<filter id="filter1_dd" x="36.0688" y="413.429" width="630.133" height="420.973" filterUnits="userSpaceOnUse" color-interpolation-filters="sRGB">
<feFlood flood-opacity="0" result="BackgroundImageFix"/>
<feColorMatrix in="SourceAlpha" type="matrix" values="0 0 0 0 0 0 0 0 0 0 0 0 0 0 0 0 0 0 127 0" result="hardAlpha"/>
<feOffset dx="-29.4683" dy="120.975"/>
<feGaussianBlur stdDeviation="45.7534"/>
<feComposite in2="hardAlpha" operator="out"/>
<feColorMatrix type="matrix" values="0 0 0 0 0 0 0 0 0 0 0 0 0 0 0 0 0 0 0.29 0"/>
<feBlend mode="normal" in2="BackgroundImageFix" result="effect1_dropShadow"/>
<feColorMatrix in="SourceAlpha" type="matrix" values="0 0 0 0 0 0 0 0 0 0 0 0 0 0 0 0 0 0 127 0" result="hardAlpha"/>
<feOffset dx="-29.4683" dy="51.1818"/>
<feGaussianBlur stdDeviation="45.7534"/>
<feComposite in2="hardAlpha" operator="out"/>
<feColorMatrix type="matrix" values="0 0 0 0 0 0 0 0 0 0 0 0 0 0 0 0 0 0 0.49 0"/>
<feBlend mode="normal" in2="effect1_dropShadow" result="effect2_dropShadow"/>
<feBlend mode="normal" in="SourceGraphic" in2="effect2_dropShadow" result="shape"/>
</filter>
<filter id="filter2_d" x="377.805" y="401.74" width="691.299" height="457.16" filterUnits="userSpaceOnUse" color-interpolation-filters="sRGB">
<feFlood flood-opacity="0" result="BackgroundImageFix"/>
<feColorMatrix in="SourceAlpha" type="matrix" values="0 0 0 0 0 0 0 0 0 0 0 0 0 0 0 0 0 0 127 0" result="hardAlpha"/>
<feOffset dx="-29.4683" dy="65.1405"/>
<feGaussianBlur stdDeviation="45.7534"/>
<feComposite in2="hardAlpha" operator="out"/>
<feColorMatrix type="matrix" values="0 0 0 0 0 0 0 0 0 0 0 0 0 0 0 0 0 0 0.72 0"/>
<feBlend mode="normal" in2="BackgroundImageFix" result="effect1_dropShadow"/>
<feBlend mode="normal" in="SourceGraphic" in2="effect1_dropShadow" result="shape"/>
</filter>
<filter id="filter3_d" x="775.535" y="163.306" width="616.048" height="763.665" filterUnits="userSpaceOnUse" color-interpolation-filters="sRGB">
<feFlood flood-opacity="0" result="BackgroundImageFix"/>
<feColorMatrix in="SourceAlpha" type="matrix" values="0 0 0 0 0 0 0 0 0 0 0 0 0 0 0 0 0 0 127 0" result="hardAlpha"/>
<feOffset dx="-29.4683" dy="120.975"/>
<feGaussianBlur stdDeviation="45.7534"/>
<feComposite in2="hardAlpha" operator="out"/>
<feColorMatrix type="matrix" values="0 0 0 0 0 0 0 0 0 0 0 0 0 0 0 0 0 0 0.29 0"/>
<feBlend mode="normal" in2="BackgroundImageFix" result="effect1_dropShadow"/>
<feBlend mode="normal" in="SourceGraphic" in2="effect1_dropShadow" result="shape"/>
</filter>
<filter id="filter4_d" x="1185.58" y="23.9016" width="628.681" height="543.254" filterUnits="userSpaceOnUse" color-interpolation-filters="sRGB">
<feFlood flood-opacity="0" result="BackgroundImageFix"/>
<feColorMatrix in="SourceAlpha" type="matrix" values="0 0 0 0 0 0 0 0 0 0 0 0 0 0 0 0 0 0 127 0" result="hardAlpha"/>
<feOffset dx="-29.4683" dy="120.975"/>
<feGaussianBlur stdDeviation="45.7534"/>
<feComposite in2="hardAlpha" operator="out"/>
<feColorMatrix type="matrix" values="0 0 0 0 0 0 0 0 0 0 0 0 0 0 0 0 0 0 0.29 0"/>
<feBlend mode="normal" in2="BackgroundImageFix" result="effect1_dropShadow"/>
<feBlend mode="normal" in="SourceGraphic" in2="effect1_dropShadow" result="shape"/>
</filter>
<linearGradient id="paint0_linear" x1="127.372" y1="318.848" x2="29.3949" y2="464.079" gradientUnits="userSpaceOnUse">
<stop stop-color="#1837C7"/>
<stop offset="0.2" stop-color="#1634BF"/>
<stop offset="0.51" stop-color="#102CAA"/>
<stop offset="0.88" stop-color="#071E86"/>
<stop offset="1" stop-color="#04197A"/>
</linearGradient>
<linearGradient id="paint1_linear" x1="422.959" y1="619.43" x2="389.914" y2="387.834" gradientUnits="userSpaceOnUse">
<stop stop-color="#0E67DE"/>
<stop offset="0.25" stop-color="#1C73E8"/>
<stop offset="0.69" stop-color="#2E83F5"/>
<stop offset="1" stop-color="#3489FA"/>
</linearGradient>
<linearGradient id="paint2_linear" x1="885.742" y1="428.817" x2="790.295" y2="677.195" gradientUnits="userSpaceOnUse">
<stop stop-color="#1837C7"/>
<stop offset="0.2" stop-color="#1634BF"/>
<stop offset="0.51" stop-color="#102CAA"/>
<stop offset="0.88" stop-color="#071E86"/>
<stop offset="1" stop-color="#04197A"/>
</linearGradient>
<linearGradient id="paint3_linear" x1="1175.36" y1="713.707" x2="1056.03" y2="37.922" gradientUnits="userSpaceOnUse">
<stop stop-color="#0E67DE"/>
<stop offset="0.25" stop-color="#1C73E8"/>
<stop offset="0.69" stop-color="#2E83F5"/>
<stop offset="1" stop-color="#3489FA"/>
</linearGradient>
<linearGradient id="paint4_linear" x1="1639.85" y1="43.3079" x2="1510.74" y2="295.258" gradientUnits="userSpaceOnUse">
<stop stop-color="#1837C7"/>
<stop offset="0.2" stop-color="#1634BF"/>
<stop offset="0.51" stop-color="#102CAA"/>
<stop offset="0.88" stop-color="#071E86"/>
<stop offset="1" stop-color="#04197A"/>
</linearGradient>
<radialGradient id="paint5_radial" cx="0" cy="0" r="1" gradientUnits="userSpaceOnUse" gradientTransform="translate(977280 156992) rotate(-6.98532) scale(804403 287178)">
<stop stop-color="#52F7FA"/>
<stop offset="1" stop-color="#7A96F7"/>
</radialGradient>
<linearGradient id="paint6_linear" x1="825.531" y1="108.404" x2="902.803" y2="739.066" gradientUnits="userSpaceOnUse">
<stop stop-color="white"/>
<stop offset="1" stop-color="white" stop-opacity="0"/>
</linearGradient>
</defs>
</svg>
