<svg width="61" height="65" viewBox="0 0 61 65" fill="none" xmlns="http://www.w3.org/2000/svg">
<path d="M30.4707 30.7917L30.4597 30.8045L27.1069 35.5627L30.4634 57.8805H30.4652L30.478 57.8823L33.8326 35.5627L30.4707 30.7917Z" fill="#2B303E"/>
<path d="M29.8353 27.5691H23.9456L18.0103 35.5559L29.9704 64.3639L30.0726 64.3311L23.9584 35.576L29.8353 27.5691Z" fill="#2B303E"/>
<path d="M20.5257 27.5693H14.479L6.56152 35.5598L27.6474 62.0444L27.7368 61.986L13.1831 35.5726L20.5257 27.5693Z" fill="#2B303E"/>
<path d="M36.9942 27.5691H31.1045L36.9814 35.576L30.8672 64.3311L30.9694 64.3639L42.9295 35.5559L36.9942 27.5691Z" fill="#2B303E"/>
<path d="M46.461 27.5691H40.4143L47.7568 35.5723L33.2031 61.9858L33.2926 62.0442L54.3784 35.5596L46.461 27.5691Z" fill="#2B303E"/>
<path d="M30.4708 4.00801C31.5776 4.00801 32.4748 3.11079 32.4748 2.004C32.4748 0.897224 31.5776 0 30.4708 0C29.364 0 28.4668 0.897224 28.4668 2.004C28.4668 3.11079 29.364 4.00801 30.4708 4.00801Z" fill="#2B303E"/>
<path d="M13.4464 9.78462C14.5532 9.78462 15.4504 8.8874 15.4504 7.78062C15.4504 6.67384 14.5532 5.77661 13.4464 5.77661C12.3396 5.77661 11.4424 6.67384 11.4424 7.78062C11.4424 8.8874 12.3396 9.78462 13.4464 9.78462Z" fill="#2B303E"/>
<path d="M47.4942 9.78462C48.601 9.78462 49.4982 8.8874 49.4982 7.78062C49.4982 6.67384 48.601 5.77661 47.4942 5.77661C46.3875 5.77661 45.4902 6.67384 45.4902 7.78062C45.4902 8.8874 46.3875 9.78462 47.4942 9.78462Z" fill="#2B303E"/>
<path d="M46.729 9.09843C46.729 9.09843 42.867 10.5677 38.587 9.42696C33.6683 8.11468 30.4688 3.19775 30.4688 3.19775C30.4688 3.19775 27.2693 8.11651 22.3506 9.42696C18.0706 10.5677 14.2086 9.09843 14.2086 9.09843L12.7339 8.82466L18.3626 19.3156V22.7578H30.4688H42.5749V19.3156L48.2037 8.82466L46.729 9.09843ZM22.7722 19.7171L20.6021 17.2933L21.6022 16.2931H22.7703H23.9384L24.9386 17.2933L22.7722 19.7171ZM30.4706 19.5346L26.1779 14.4534L27.9811 12.6502H30.4706H32.9583L34.7615 14.4534L30.4706 19.5346ZM38.1691 19.7171L36.0008 17.2933L37.001 16.2931H38.1691H39.3371L40.3373 17.2933L38.1691 19.7171Z" fill="#2B303E"/>
<path d="M24.0827 27.8369L18.3408 35.5627H23.6337L29.3044 27.8369H24.0827Z" fill="#2B303E"/>
<path d="M23.6337 35.563H18.3408L29.3245 62.1024L23.6337 35.563Z" fill="#2B303E"/>
<path d="M14.5926 27.8369L6.93799 35.5627H12.8259L19.9147 27.8369H14.5926Z" fill="#2B303E"/>
<path d="M12.8259 35.563H6.93799L26.2717 59.883L12.8259 35.563Z" fill="#2B303E"/>
<path d="M30.4708 3.3948C31.2389 3.3948 31.8616 2.77213 31.8616 2.00404C31.8616 1.23594 31.2389 0.613281 30.4708 0.613281C29.7027 0.613281 29.0801 1.23594 29.0801 2.00404C29.0801 2.77213 29.7027 3.3948 30.4708 3.3948Z" fill="#2B303E"/>
<path d="M13.4459 9.17141C14.214 9.17141 14.8367 8.54874 14.8367 7.78065C14.8367 7.01256 14.214 6.38989 13.4459 6.38989C12.6778 6.38989 12.0552 7.01256 12.0552 7.78065C12.0552 8.54874 12.6778 9.17141 13.4459 9.17141Z" fill="#2B303E"/>
<path d="M30.3191 54.7601V36.6857L27.4536 35.7859L30.3191 54.7601Z" fill="#2B303E"/>
<path d="M30.3181 36.4591V31.5659L27.4946 35.5721L30.3181 36.4591Z" fill="#2B303E"/>
<path d="M30.6201 54.7601V36.6857L33.4856 35.7859L30.6201 54.7601Z" fill="#2B303E"/>
<path d="M30.6201 36.4591V31.5659L33.4436 35.5721L30.6201 36.4591Z" fill="#2B303E"/>
<path d="M60.8995 35.5391L48.6437 24.0718H30.5237H30.416H12.296L0.0401533 35.5391L0 35.5756L21.1662 57.5303L21.2465 57.4609L3.93683 35.5829L13.5772 26.074H30.416H30.5237H47.3642L57.0028 35.5829L39.6932 57.4609L39.7735 57.5303L60.9415 35.5756L60.8995 35.5391Z" fill="#2B303E"/>
<path d="M36.8584 27.8369L42.5985 35.5627H37.3056L31.6367 27.8369H36.8584Z" fill="#2B303E"/>
<path d="M37.3057 35.563H42.5986L31.6167 62.1024L37.3057 35.563Z" fill="#2B303E"/>
<path d="M46.3486 27.8369L54.0032 35.5627H48.1153L41.0283 27.8369H46.3486Z" fill="#2B303E"/>
<path d="M48.1143 35.563H54.0022L34.6685 59.883L48.1143 35.563Z" fill="#2B303E"/>
<path d="M46.873 9.62066C46.3857 9.7977 42.6368 11.0643 38.45 9.94736C34.9658 9.01837 31.7335 6.11092 30.4705 4.32593C28.3825 6.83915 25.9751 9.01837 22.4909 9.94736C18.3022 11.0643 14.5552 9.79588 14.0679 9.62066L13.7412 9.56043L18.9027 19.1826V22.2214H30.4157H42.0364V19.1826L47.1979 9.56043L46.873 9.62066ZM22.772 19.7173L20.6019 17.2936L21.6021 16.2934H22.7702H23.9383L24.9385 17.2936L22.772 19.7173ZM30.4157 20.3069L25.4458 14.4226L27.7565 12.112H30.4686H33.1808L35.4914 14.4226L30.4157 20.3069ZM38.1689 19.7173L36.0006 17.2936L37.0008 16.2934H38.1689H39.337L40.3372 17.2936L38.1689 19.7173Z" fill="#2B303E"/>
<path d="M46.873 9.62066C46.3857 9.7977 42.6368 11.0643 38.45 9.94736C34.9658 9.01837 31.7335 6.11092 30.4705 4.32593C28.3825 6.83915 25.9751 9.01837 22.4909 9.94736C18.3022 11.0643 14.5552 9.79588 14.0679 9.62066L13.7412 9.56043L18.9027 19.1826V22.2214H30.4157H42.0364V19.1826L47.1979 9.56043L46.873 9.62066ZM22.772 19.7173L20.6019 17.2936L21.6021 16.2934H22.7702H23.9383L24.9385 17.2936L22.772 19.7173ZM30.4157 20.3069L25.4458 14.4226L27.7565 12.112H30.4686H33.1808L35.4914 14.4226L30.4157 20.3069ZM38.1689 19.7173L36.0006 17.2936L37.0008 16.2934H38.1689H39.337L40.3372 17.2936L38.1689 19.7173Z" fill="#2B303E"/>
<path d="M47.4938 9.17141C48.2619 9.17141 48.8845 8.54874 48.8845 7.78065C48.8845 7.01256 48.2619 6.38989 47.4938 6.38989C46.7257 6.38989 46.103 7.01256 46.103 7.78065C46.103 8.54874 46.7257 9.17141 47.4938 9.17141Z" fill="#2B303E"/>
<path d="M60.5559 35.5887L48.5392 24.3403H31.3865H30.0724H12.3995L0.382812 35.5887L18.3148 54.1522L3.57498 35.5577L13.4672 25.8041H30.2531H31.3865H47.4715L57.3637 35.5577L42.6239 54.1522L60.5559 35.5887Z" fill="#2B303E"/>
<path d="M57.3639 35.5571H60.556L42.624 54.1517L57.3639 35.5571Z" fill="#2B303E"/>
<path d="M3.57498 35.5571H0.382812L18.3148 54.1517L3.57498 35.5571Z" fill="#2B303E"/>
</svg>
