<svg width="26" height="23" viewBox="0 0 26 23" fill="none" xmlns="http://www.w3.org/2000/svg">
<path fill-rule="evenodd" clip-rule="evenodd" d="M0.28125 11.4999C0.28125 11.0772 0.449163 10.6719 0.748049 10.373C1.04693 10.0741 1.45231 9.90619 1.875 9.90619H20.3402L13.4966 3.06581C13.1974 2.76655 13.0292 2.36066 13.0292 1.93744C13.0292 1.51422 13.1974 1.10833 13.4966 0.809063C13.7959 0.5098 14.2018 0.341675 14.625 0.341675C15.0482 0.341675 15.4541 0.5098 15.7534 0.809063L25.3159 10.3716C25.4643 10.5196 25.5821 10.6955 25.6624 10.8891C25.7427 11.0827 25.7841 11.2903 25.7841 11.4999C25.7841 11.7096 25.7427 11.9171 25.6624 12.1108C25.5821 12.3044 25.4643 12.4803 25.3159 12.6283L15.7534 22.1908C15.4541 22.4901 15.0482 22.6582 14.625 22.6582C14.2018 22.6582 13.7959 22.4901 13.4966 22.1908C13.1974 21.8916 13.0292 21.4857 13.0292 21.0624C13.0292 20.6392 13.1974 20.2333 13.4966 19.9341L20.3402 13.0937H1.875C1.45231 13.0937 1.04693 12.9258 0.748049 12.6269C0.449163 12.328 0.28125 11.9226 0.28125 11.4999Z" fill="#2B303E"/>
</svg>
