<svg width="600" height="333" viewBox="0 0 600 333" fill="none" xmlns="http://www.w3.org/2000/svg">
<g opacity="0.07">
<path d="M-266.751 84.61C-273.26 80.716 -286.701 74.4879 -292.608 71.8606L-294.714 68.3487C-288.67 70.9591 -274.716 77.0407 -267.257 80.4831C-257.933 84.7862 -232.555 103.878 -217.217 116.24C-201.879 128.603 -185.067 149.582 -171.556 170.965C-160.747 188.072 -145.281 203.072 -138.9 208.433C-128.783 219.61 -109.42 227.946 -91.7669 230.724C-83.2156 232.069 -77.3327 230.785 -68.7657 230.419C-42.5135 229.297 -19.1598 211.355 -10.4264 204.002C-1.69309 196.649 15.1245 173.225 29.399 156.396C43.6735 139.568 62.0504 132.289 70.1525 130.04C78.2546 127.791 85.6966 128.124 107.401 130.91C132.146 134.581 150.268 161.693 155.558 170.68C160.847 179.666 173.887 204.039 191.096 231.671C208.305 259.303 233.407 271.095 248.298 276.391C263.189 281.688 285.345 282.956 298.239 282.214C308.555 281.62 322.558 276.045 328.236 273.644C337.037 269.92 346.926 264.416 357.347 255.446C367.673 246.558 375.128 238.931 381.487 231.271C394.262 215.883 404.493 186.723 406.366 179.924C407.382 176.234 411.119 163.504 413.806 150.834C416.733 137.029 418.606 123.166 419.264 117.844C420.526 107.636 423.733 82.5288 425.745 61.3382C427.756 40.1476 436.15 2.67616 443.729 -17.5211C451.308 -37.7183 469.962 -52.9893 488.818 -66.6095C507.675 -80.2297 530.698 -83.7742 540.9 -85.9762C549.878 -87.914 585.361 -88.9105 595.519 -88.0606C603.645 -87.3807 622.204 -83.3714 630.674 -81.477L648.967 -75.7596C634.242 -78.5632 603.321 -85.1081 597.111 -85.3235C589.118 -85.6008 568.129 -85.9614 535.99 -81.6047C503.851 -77.248 475.428 -52.8213 459.814 -36.6661C447.323 -23.7421 437.134 15.2618 433.601 33.1482C431.028 52.0339 425.967 97.4474 421.876 125.595C420.424 135.582 418.9 142.931 417.658 150.203C414.478 168.816 411.088 182.645 397.222 212.054C385.662 236.571 361.552 259.844 340.325 271.814C328.303 278.594 316.605 282.067 308.599 284.714C295.443 289.064 275.81 287.157 260.152 283.519C249.458 281.034 242.333 277.863 233.634 274.849C221.715 270.719 208.305 259.993 196.968 246.734C187.916 236.148 181.178 224.454 176.844 217.919C167.082 203.197 158.624 182.033 140.994 157.803C123.365 133.573 103.377 132.359 80.3255 132.251C61.884 132.165 42.0543 148.004 34.3513 155.79L2.0211 196.194C-5.89505 206.798 -28.6808 228.691 -59.5936 233.484C-98.2346 239.475 -103.684 232.603 -121.304 225.546C-138.924 218.49 -159.805 195.077 -167.411 184.28C-175.017 173.484 -190.945 149.464 -199.84 138.407C-208.735 127.349 -241.264 101.175 -243.117 99.7262C-244.97 98.2777 -258.615 89.4775 -266.751 84.61Z" fill="url(#paint0_radial)" fill-opacity="0.61"/>
<path d="M630.545 -80.9935L640.121 -78.0006C638.348 -78.3531 636.496 -78.7226 634.599 -79.1013C629.83 -80.0532 624.773 -81.0627 619.941 -82.0029C614.767 -83.0099 609.855 -83.9366 605.847 -84.6253C601.853 -85.3116 598.721 -85.7679 597.128 -85.8232C589.113 -86.1013 568.096 -86.4614 535.923 -82.1002C503.605 -77.7192 475.079 -53.1803 459.455 -37.0136C456.277 -33.7258 453.271 -28.8088 450.495 -23.0373C447.716 -17.2587 445.153 -10.5917 442.874 -3.77848C438.316 9.84762 434.88 24.0913 433.11 33.0513L433.107 33.0659L433.105 33.0807C432.092 40.5177 430.697 52.0387 429.127 64.9942C426.704 85.0019 423.865 108.431 421.381 125.523C420.404 132.248 419.395 137.765 418.46 142.881C418.007 145.357 417.571 147.739 417.165 150.119C413.993 168.687 410.617 182.473 396.77 211.841C385.261 236.25 361.232 259.451 340.079 271.379C329.366 277.42 318.913 280.825 311.085 283.374C310.167 283.674 309.284 283.961 308.442 284.24C301.946 286.388 293.817 286.999 285.336 286.612C276.862 286.226 268.07 284.845 260.265 283.032C252.483 281.223 246.614 279.056 240.612 276.839C238.393 276.02 236.156 275.194 233.798 274.376C221.998 270.288 208.658 259.636 197.348 246.409C190.34 238.213 184.73 229.361 180.533 222.738C179.325 220.832 178.234 219.11 177.261 217.642C173.488 211.953 169.913 205.301 165.909 197.854C164.75 195.697 163.555 193.473 162.308 191.187C156.766 181.019 150.232 169.649 141.399 157.509C132.527 145.316 123.039 138.888 112.851 135.507C102.684 132.133 91.8501 131.805 80.3278 131.751C70.9745 131.707 61.313 135.697 53.0547 140.639C44.7884 145.586 37.8726 151.52 33.9958 155.438L33.9773 155.457L33.9609 155.477L1.6307 195.881L1.62544 195.888L1.62043 195.895C-6.25004 206.438 -28.9322 228.224 -59.6702 232.99C-78.9638 235.981 -89.9163 235.752 -98.2242 233.92C-102.379 233.003 -105.887 231.683 -109.465 230.147C-110.749 229.595 -112.048 229.013 -113.39 228.411C-115.775 227.342 -118.298 226.212 -121.118 225.082C-129.836 221.591 -139.404 214.029 -147.766 205.956C-156.118 197.891 -163.219 189.363 -167.002 183.992C-169.162 180.927 -171.999 176.785 -175.159 172.173C-183.1 160.581 -193.078 146.015 -199.451 138.093C-203.933 132.521 -214.328 123.182 -223.794 115.083C-233.275 106.972 -241.876 100.062 -242.809 99.3323C-244.69 97.8615 -258.362 89.0458 -266.494 84.1809C-272.98 80.3006 -286.285 74.13 -292.261 71.468L-293.486 69.4246C-286.888 72.2818 -274.381 77.7457 -267.466 80.9371C-262.857 83.0642 -254.222 88.8812 -244.786 95.7438C-235.366 102.594 -225.194 110.453 -217.531 116.63C-202.253 128.944 -185.475 149.871 -171.978 171.232C-161.149 188.372 -145.671 203.392 -139.247 208.794C-129.02 220.073 -109.548 228.432 -91.8447 231.218C-85.6686 232.189 -80.8368 231.801 -75.4711 231.369C-73.3508 231.198 -71.1472 231.021 -68.7443 230.918C-42.3096 229.788 -18.842 211.741 -10.1044 204.385C-5.6915 200.669 0.729541 192.93 7.79926 184.064C9.69454 181.688 11.6381 179.228 13.6049 176.739C18.9933 169.919 24.5564 162.879 29.7803 156.72C43.9686 139.993 62.2429 132.755 70.2863 130.522C78.2749 128.304 85.6155 128.618 107.333 131.406C119.549 133.219 130.169 140.828 138.42 149.153C146.665 157.474 152.494 166.461 155.127 170.933C156.577 173.397 158.616 177.029 161.169 181.575C167.898 193.561 178.194 211.901 190.671 231.936C207.965 259.704 233.189 271.548 248.131 276.862C263.11 282.19 285.34 283.457 298.268 282.713C308.683 282.114 322.764 276.501 328.431 274.104C337.274 270.363 347.209 264.833 357.673 255.825C368.017 246.921 375.493 239.274 381.872 231.591C388.305 223.841 394.079 212.652 398.473 202.576C402.87 192.496 405.904 183.483 406.848 180.057C406.992 179.533 407.191 178.826 407.435 177.961C408.905 172.749 411.987 161.821 414.295 150.937C417.226 137.113 419.101 123.234 419.76 117.905C419.899 116.783 420.061 115.481 420.243 114.023C421.713 102.225 424.452 80.2539 426.243 61.3854C428.25 40.2361 436.635 2.80815 444.197 -17.3454C451.716 -37.3847 470.247 -52.5782 489.111 -66.2042C505.922 -78.3467 526.066 -82.4391 537.436 -84.7487C538.749 -85.0156 539.945 -85.2586 541.006 -85.4875C545.442 -86.4451 556.509 -87.1786 567.784 -87.5641C579.048 -87.9492 590.431 -87.9845 595.477 -87.5623C603.554 -86.8865 622.051 -82.893 630.545 -80.9935Z" stroke="url(#paint1_linear)" stroke-opacity="0.78"/>
</g>
<defs>
<radialGradient id="paint0_radial" cx="0" cy="0" r="1" gradientUnits="userSpaceOnUse" gradientTransform="translate(523699 84072.2) rotate(-6.98532) scale(431281 153971)">
<stop stop-color="#52F7FA"/>
<stop offset="1" stop-color="#7A96F7"/>
</radialGradient>
<linearGradient id="paint1_linear" x1="172.56" y1="-40.9772" x2="213.989" y2="297.152" gradientUnits="userSpaceOnUse">
<stop stop-color="white"/>
<stop offset="1" stop-color="white" stop-opacity="0"/>
</linearGradient>
</defs>
</svg>
