<svg width="174" height="65" viewBox="0 0 174 65" fill="none" xmlns="http://www.w3.org/2000/svg">
<path d="M30.4707 30.792L30.4597 30.8048L27.1069 35.5629L30.4634 57.8807H30.4652L30.478 57.8826L33.8326 35.5629L30.4707 30.792Z" fill="#2B303E"/>
<path d="M29.8353 27.5691H23.9456L18.0103 35.5559L29.9704 64.3639L30.0726 64.3311L23.9584 35.576L29.8353 27.5691Z" fill="#2B303E"/>
<path d="M20.5257 27.5693H14.479L6.56152 35.5598L27.6474 62.0444L27.7368 61.986L13.1831 35.5726L20.5257 27.5693Z" fill="#2B303E"/>
<path d="M36.9942 27.5691H31.1045L36.9814 35.576L30.8672 64.3311L30.9694 64.3639L42.9295 35.5559L36.9942 27.5691Z" fill="#2B303E"/>
<path d="M46.461 27.5691H40.4143L47.7568 35.5723L33.2031 61.9858L33.2926 62.0442L54.3784 35.5596L46.461 27.5691Z" fill="#2B303E"/>
<path d="M30.4708 4.00801C31.5776 4.00801 32.4748 3.11079 32.4748 2.004C32.4748 0.897224 31.5776 0 30.4708 0C29.364 0 28.4668 0.897224 28.4668 2.004C28.4668 3.11079 29.364 4.00801 30.4708 4.00801Z" fill="#2B303E"/>
<path d="M13.4464 9.78462C14.5532 9.78462 15.4504 8.8874 15.4504 7.78062C15.4504 6.67384 14.5532 5.77661 13.4464 5.77661C12.3396 5.77661 11.4424 6.67384 11.4424 7.78062C11.4424 8.8874 12.3396 9.78462 13.4464 9.78462Z" fill="#2B303E"/>
<path d="M47.4942 9.78462C48.601 9.78462 49.4982 8.8874 49.4982 7.78062C49.4982 6.67384 48.601 5.77661 47.4942 5.77661C46.3875 5.77661 45.4902 6.67384 45.4902 7.78062C45.4902 8.8874 46.3875 9.78462 47.4942 9.78462Z" fill="#2B303E"/>
<path d="M46.729 9.09843C46.729 9.09843 42.867 10.5677 38.587 9.42696C33.6683 8.11468 30.4688 3.19775 30.4688 3.19775C30.4688 3.19775 27.2693 8.11651 22.3506 9.42696C18.0706 10.5677 14.2086 9.09843 14.2086 9.09843L12.7339 8.82466L18.3626 19.3156V22.7578H30.4688H42.5749V19.3156L48.2037 8.82466L46.729 9.09843ZM22.7722 19.7171L20.6021 17.2933L21.6022 16.2931H22.7703H23.9384L24.9386 17.2933L22.7722 19.7171ZM30.4706 19.5346L26.1779 14.4534L27.9811 12.6502H30.4706H32.9583L34.7615 14.4534L30.4706 19.5346ZM38.1691 19.7171L36.0008 17.2933L37.001 16.2931H38.1691H39.3371L40.3373 17.2933L38.1691 19.7171Z" fill="#2B303E"/>
<path d="M24.0827 27.8369L18.3408 35.5627H23.6337L29.3044 27.8369H24.0827Z" fill="#2B303E"/>
<path d="M23.6337 35.563H18.3408L29.3245 62.1024L23.6337 35.563Z" fill="#2B303E"/>
<path d="M14.5926 27.8369L6.93799 35.5627H12.8259L19.9147 27.8369H14.5926Z" fill="#2B303E"/>
<path d="M12.8259 35.563H6.93799L26.2717 59.883L12.8259 35.563Z" fill="#2B303E"/>
<path d="M30.4708 3.3948C31.2389 3.3948 31.8616 2.77213 31.8616 2.00404C31.8616 1.23594 31.2389 0.613281 30.4708 0.613281C29.7027 0.613281 29.0801 1.23594 29.0801 2.00404C29.0801 2.77213 29.7027 3.3948 30.4708 3.3948Z" fill="#2B303E"/>
<path d="M13.4459 9.17141C14.214 9.17141 14.8367 8.54874 14.8367 7.78065C14.8367 7.01256 14.214 6.38989 13.4459 6.38989C12.6778 6.38989 12.0552 7.01256 12.0552 7.78065C12.0552 8.54874 12.6778 9.17141 13.4459 9.17141Z" fill="#2B303E"/>
<path d="M30.3191 54.7601V36.6857L27.4536 35.7859L30.3191 54.7601Z" fill="#2B303E"/>
<path d="M30.3181 36.4591V31.5659L27.4946 35.5721L30.3181 36.4591Z" fill="#2B303E"/>
<path d="M30.6201 54.7601V36.6857L33.4856 35.7859L30.6201 54.7601Z" fill="#2B303E"/>
<path d="M30.6201 36.4591V31.5659L33.4436 35.5721L30.6201 36.4591Z" fill="#2B303E"/>
<path d="M60.8995 35.5391L48.6437 24.0718H30.5237H30.416H12.296L0.0401533 35.5391L0 35.5756L21.1662 57.5303L21.2465 57.4609L3.93683 35.5829L13.5772 26.074H30.416H30.5237H47.3642L57.0028 35.5829L39.6932 57.4609L39.7735 57.5303L60.9415 35.5756L60.8995 35.5391Z" fill="#2B303E"/>
<path d="M36.8584 27.8369L42.5985 35.5627H37.3056L31.6367 27.8369H36.8584Z" fill="#2B303E"/>
<path d="M37.3057 35.563H42.5986L31.6167 62.1024L37.3057 35.563Z" fill="#2B303E"/>
<path d="M46.3486 27.8369L54.0032 35.5627H48.1153L41.0283 27.8369H46.3486Z" fill="#2B303E"/>
<path d="M48.1143 35.563H54.0022L34.6685 59.883L48.1143 35.563Z" fill="#2B303E"/>
<path d="M46.873 9.62066C46.3857 9.7977 42.6368 11.0643 38.45 9.94736C34.9658 9.01837 31.7335 6.11092 30.4705 4.32593C28.3825 6.83915 25.9751 9.01837 22.4909 9.94736C18.3022 11.0643 14.5552 9.79588 14.0679 9.62066L13.7412 9.56043L18.9027 19.1826V22.2214H30.4157H42.0364V19.1826L47.1979 9.56043L46.873 9.62066ZM22.772 19.7173L20.6019 17.2936L21.6021 16.2934H22.7702H23.9383L24.9385 17.2936L22.772 19.7173ZM30.4157 20.3069L25.4458 14.4226L27.7565 12.112H30.4686H33.1808L35.4914 14.4226L30.4157 20.3069ZM38.1689 19.7173L36.0006 17.2936L37.0008 16.2934H38.1689H39.337L40.3372 17.2936L38.1689 19.7173Z" fill="#2B303E"/>
<path d="M46.873 9.62066C46.3857 9.7977 42.6368 11.0643 38.45 9.94736C34.9658 9.01837 31.7335 6.11092 30.4705 4.32593C28.3825 6.83915 25.9751 9.01837 22.4909 9.94736C18.3022 11.0643 14.5552 9.79588 14.0679 9.62066L13.7412 9.56043L18.9027 19.1826V22.2214H30.4157H42.0364V19.1826L47.1979 9.56043L46.873 9.62066ZM22.772 19.7173L20.6019 17.2936L21.6021 16.2934H22.7702H23.9383L24.9385 17.2936L22.772 19.7173ZM30.4157 20.3069L25.4458 14.4226L27.7565 12.112H30.4686H33.1808L35.4914 14.4226L30.4157 20.3069ZM38.1689 19.7173L36.0006 17.2936L37.0008 16.2934H38.1689H39.337L40.3372 17.2936L38.1689 19.7173Z" fill="#2B303E"/>
<path d="M47.4938 9.17141C48.2619 9.17141 48.8845 8.54874 48.8845 7.78065C48.8845 7.01256 48.2619 6.38989 47.4938 6.38989C46.7257 6.38989 46.103 7.01256 46.103 7.78065C46.103 8.54874 46.7257 9.17141 47.4938 9.17141Z" fill="#2B303E"/>
<path d="M60.5559 35.5887L48.5392 24.3403H31.3865H30.0724H12.3995L0.382812 35.5887L18.3148 54.1522L3.57498 35.5577L13.4672 25.8041H30.2531H31.3865H47.4715L57.3637 35.5577L42.6239 54.1522L60.5559 35.5887Z" fill="#2B303E"/>
<path d="M57.3639 35.5571H60.556L42.624 54.1517L57.3639 35.5571Z" fill="#2B303E"/>
<path d="M3.57498 35.5571H0.382812L18.3148 54.1517L3.57498 35.5571Z" fill="#2B303E"/>
<path d="M24.1124 15.8787H21.4313L20.0332 17.2767L22.7727 20.3375L25.5123 17.2767L24.1124 15.8787ZM20.6026 17.2931L21.6028 16.293H22.7709H23.939L24.9392 17.2931L22.7709 19.7169L20.6026 17.2931Z" fill="#2B303E"/>
<path d="M39.5089 15.8787H36.8277L35.4297 17.2767L38.1692 20.3375L40.9088 17.2767L39.5089 15.8787ZM35.9991 17.2931L36.9993 16.293H38.1674H39.3355L40.3357 17.2931L38.1674 19.7169L35.9991 17.2931Z" fill="#2B303E"/>
<path d="M82.457 35.9373L82.1634 35.9163C79.7385 35.7439 79.5405 35.7276 79.5405 32.2986V28.0497H80.9684C81.7907 28.0497 82.2193 28.292 82.7342 29.0491C83.3911 30.0367 83.9199 30.9802 84.4323 31.891C86.2237 35.0777 87.64 37.5958 92.3525 37.5958H93.0839L93.2074 36.3682L92.8999 36.3309C91.0224 36.1003 88.7768 32.6388 85.2989 26.9921C87.9708 25.7878 89.436 23.7425 89.436 21.2011C89.436 17.5182 86.8853 15.6523 81.856 15.6523H73.2603V16.9918L73.5538 17.0151C75.8786 17.1875 76.1767 17.2084 76.1767 20.6327V32.3033C76.1767 35.7323 75.9787 35.7462 73.5538 35.921L73.2603 35.9373V37.279H82.457V35.9373ZM81.3155 17.2038C83.5238 17.2038 85.8836 18.3708 85.8836 21.6437C85.8836 24.7069 84.218 26.4634 81.3155 26.4634H79.5405V17.9329C79.5405 17.2038 79.5405 17.2038 81.3155 17.2038Z" fill="#2B303E"/>
<path d="M105.26 37.7865C111.747 37.7865 116.455 32.904 116.455 26.1788C116.455 19.887 111.887 15.1418 105.83 15.1418C98.4553 15.1418 94.4766 21.089 94.4766 26.6843C94.4766 33.1183 99.0097 37.7865 105.26 37.7865ZM105.006 16.854C109.739 16.854 112.681 20.8886 112.681 27.3831C112.681 32.6617 110.03 36.072 105.926 36.072C101.407 36.072 98.2503 31.8324 98.2503 25.7642C98.2503 20.3528 100.901 16.854 105.006 16.854Z" fill="#2B303E"/>
<path d="M120.015 19.5823L124.136 26.8106C124.732 27.8798 124.793 28.1011 124.793 28.5903V32.3011C124.793 35.7301 124.595 35.7441 122.17 35.9188L121.876 35.9397V37.2815H131.073V35.9397L130.78 35.9188C128.355 35.7464 128.157 35.7301 128.157 32.3011V28.2735C128.157 27.6702 128.199 27.5374 128.657 26.6778C130.088 24.0153 131.322 21.9304 132.739 19.6219C134.129 17.381 134.386 17.1853 136.179 17.0106L136.466 16.9826V15.6478H128.727V16.9733L130.274 17.1666C131.127 17.2738 131.201 17.332 131.201 17.5813C131.201 18.0681 130.717 19.0675 129.557 21.2712L127.227 25.7018L123.102 18.3407C122.866 17.9377 122.734 17.544 122.734 17.4532C122.734 17.374 122.734 17.2575 123.248 17.1969L125.017 16.971V15.6455H116.582V16.9733L116.861 17.0059C118.583 17.2156 118.65 17.2249 120.015 19.5823Z" fill="#2B303E"/>
<path d="M134.561 35.9162V37.2789H142.108V35.9115L140.838 35.7904C139.776 35.6833 139.697 35.4689 139.697 35.1545C139.697 34.8237 139.797 34.3671 139.997 33.7987L141.542 29.2866H147.659L149.639 34.6746C149.711 34.9145 149.784 35.1801 149.784 35.3455C149.784 35.4689 149.784 35.6576 148.889 35.7601L147.596 35.9209V37.2789H156.031V35.9069L155.74 35.8836C153.909 35.7392 153.581 35.7112 152.556 32.9811L145.938 15L144.78 15.5032L138.071 32.7831C136.983 35.5784 136.774 35.6763 134.845 35.8813L134.561 35.9162ZM142.178 27.416L144.582 20.6326L146.988 27.416H142.178Z" fill="#2B303E"/>
<path d="M172.791 37.0625C173.08 36.1983 173.784 32.8788 173.944 31.9424L174 31.6139L172.624 31.4485L172.54 31.6885C171.328 35.1081 170.909 35.5996 167.194 35.5996C163.49 35.5996 163.42 35.5391 163.42 32.3337V20.6305C163.42 17.2016 163.618 17.1876 166.043 17.0129L166.336 16.9919V15.6501H157.14V16.9919L157.433 17.0129C159.858 17.1853 160.056 17.2016 160.056 20.6305V32.3011C160.056 35.7301 159.858 35.744 157.433 35.9187L157.14 35.9397V37.2815H172.719L172.791 37.0625Z" fill="#2B303E"/>
<path d="M79.4408 40.9941H73.2397V41.8677L73.4308 41.8817C74.9472 41.9935 75.1406 42.0075 75.1406 44.2391V51.8447C75.1406 54.0787 75.0125 54.088 73.4308 54.2022L73.2397 54.2161V55.0897H78.2225C83.9552 55.0897 87.3796 52.2221 87.3796 47.4211C87.3796 45.49 86.6038 40.9941 79.4408 40.9941ZM77.3326 42.5246C77.3326 42.0074 77.3326 42.0074 78.8421 42.0074C83.1027 42.0074 84.9196 43.7941 84.9196 47.9802C84.9196 50.8873 83.3612 53.9948 78.9865 53.9948C77.3932 53.9948 77.3326 53.6524 77.3326 52.1965V42.5246Z" fill="#2B303E"/>
<path d="M88.5981 41.8677L88.7892 41.8817C90.3685 41.9958 90.499 42.0051 90.499 44.2391V51.8447C90.499 54.0787 90.3709 54.088 88.7892 54.2022L88.5981 54.2161V55.0897H94.5918V54.2161L94.4008 54.2022C92.8215 54.088 92.691 54.0787 92.691 51.8447V44.2391C92.691 42.0051 92.8191 41.9958 94.4008 41.8817L94.5918 41.8677V40.9941H88.5981V41.8677Z" fill="#2B303E"/>
<path d="M107.084 52.2901L102.77 40.5706L102.015 40.899L97.643 52.1619C96.9348 53.9836 96.7974 54.0488 95.5395 54.1816L95.3555 54.2002V55.0901H100.275V54.2002L99.4483 54.121C98.7565 54.0511 98.7052 53.9113 98.7052 53.7064C98.7052 53.4897 98.7705 53.1939 98.9009 52.8212L99.9072 49.8814H103.893L105.183 53.3919C105.23 53.548 105.279 53.7227 105.279 53.8298C105.279 53.9114 105.279 54.0325 104.694 54.1L103.851 54.2049V55.0901H109.349V54.1955L109.158 54.1816C107.965 54.0884 107.751 54.0698 107.084 52.2901ZM103.455 48.6631H100.32L101.887 44.2418L103.455 48.6631Z" fill="#2B303E"/>
<path d="M125.924 51.8401L125.738 44.2344C125.679 42.0214 125.712 42.0191 127.45 41.8817L127.641 41.8677V40.9941H123.83L118.938 51.5629L113.964 40.9941H110.153V41.8677L110.344 41.8817C112.136 42.0121 112.283 42.0237 112.138 44.868L111.91 49.2917C111.791 51.6724 111.628 52.8091 111.542 53.275C111.43 53.876 111.188 54.095 109.969 54.2022L109.781 54.2185V55.0897H115.134V54.2161L114.943 54.2022C113.524 54.095 113.24 53.8667 113.149 53.2867C113.068 52.6414 113.07 51.479 113.151 49.5176L113.347 44.4557L117.936 54.8637H118.742L123.66 44.104L123.734 51.8494C123.753 54.0717 123.753 54.0717 122.106 54.2045L121.915 54.2208V55.092H127.888V54.2185L127.697 54.2045C125.984 54.067 125.984 54.0671 125.924 51.8401Z" fill="#2B303E"/>
<path d="M136.114 40.6636C131.308 40.6636 128.713 44.5398 128.713 48.1877C128.713 52.3807 131.669 55.423 135.741 55.423C139.969 55.423 143.037 52.241 143.037 47.8569C143.04 43.7548 140.062 40.6636 136.114 40.6636ZM136.177 54.3049C133.233 54.3049 131.176 51.5421 131.176 47.5867C131.176 44.0576 132.904 41.7771 135.578 41.7771C138.665 41.7771 140.58 44.407 140.58 48.6396C140.58 52.0826 138.851 54.3049 136.177 54.3049Z" fill="#2B303E"/>
<path d="M153.662 41.8727L153.86 41.882C155.328 41.9473 155.658 42.2687 155.731 42.7975C155.84 43.6781 155.894 44.9825 155.894 46.7809V51.3024L147.289 40.9922H143.906V41.6747L143.925 41.8681L144.116 41.882C144.64 41.9216 145.43 41.9822 145.781 42.497C145.814 42.5436 145.844 42.5855 145.875 42.6228C146.068 42.8814 146.159 42.9979 146.159 44.7356V49.3037C146.159 51.102 146.105 52.4042 145.996 53.2847C145.924 53.8042 145.621 54.1559 144.374 54.2025L144.174 54.2095V55.0901H149.651V54.2072L149.448 54.2025C148.211 54.1746 147.636 53.8951 147.582 53.2941C147.501 52.4881 147.417 51.6518 147.417 49.3037V44.4561L156.311 55.2368H157.152V46.7832C157.152 44.9849 157.205 43.6827 157.315 42.8022C157.387 42.2827 157.69 41.9309 158.936 41.8844L159.136 41.8774V40.9968H153.66V41.8727H153.662Z" fill="#2B303E"/>
<path d="M166.064 40.9941H159.863V41.8677L160.054 41.8817C161.571 41.9935 161.764 42.0075 161.764 44.2391V51.8447C161.764 54.0787 161.636 54.088 160.054 54.2022L159.863 54.2161V55.0897H164.844C170.576 55.0897 174.001 52.2221 174.001 47.4211C174.001 45.49 173.227 40.9941 166.064 40.9941ZM163.956 42.5246C163.956 42.0074 163.956 42.0074 165.466 42.0074C169.726 42.0074 171.543 43.7941 171.543 47.9802C171.543 50.8873 169.985 53.9948 165.61 53.9948C164.017 53.9948 163.956 53.6524 163.956 52.1965V42.5246Z" fill="#2B303E"/>
</svg>
