<svg width="269" height="227" viewBox="0 0 269 227" fill="none" xmlns="http://www.w3.org/2000/svg">
<path d="M204.272 226.069C183.334 226.069 168.172 218.849 158.786 204.409C149.4 189.969 144.707 173.363 144.707 154.591C144.707 143.761 146.151 131.848 149.039 118.852C151.927 105.856 157.342 92.86 165.284 79.864C173.948 66.146 185.861 52.789 201.023 39.793C216.185 26.075 236.401 13.079 261.671 0.804977L268.169 10.552C253.729 24.27 242.177 36.183 233.513 46.291C225.571 56.399 219.434 65.785 215.102 74.449C210.77 83.113 207.882 91.055 206.438 98.2749C205.716 105.495 205.355 113.076 205.355 121.018C205.355 126.794 207.16 131.126 210.77 134.014C214.38 136.18 218.351 139.068 222.683 142.678C229.181 147.01 234.957 151.342 240.011 155.674C245.787 159.284 248.675 167.226 248.675 179.5C248.675 192.496 244.343 203.687 235.679 213.073C227.015 221.737 216.546 226.069 204.272 226.069ZM61.316 226.069C40.378 226.069 24.855 218.849 14.747 204.409C5.361 189.969 0.668 173.363 0.668 154.591C0.668 143.761 2.112 132.209 5 119.935C7.888 106.939 13.664 93.582 22.328 79.864C30.992 66.146 42.905 52.789 58.067 39.793C73.229 26.075 93.445 13.079 118.715 0.804977L125.213 10.552C110.773 24.27 99.221 36.183 90.557 46.291C82.615 56.399 76.478 65.785 72.146 74.449C67.814 83.113 64.926 91.055 63.482 98.2749C62.76 105.495 62.399 113.076 62.399 121.018C62.399 126.794 63.843 131.126 66.731 134.014C70.341 136.902 74.312 139.429 78.644 141.595C84.42 145.205 90.196 149.537 95.972 154.591C102.47 158.923 105.719 167.226 105.719 179.5C105.719 192.496 101.387 203.687 92.723 213.073C84.781 221.737 74.312 226.069 61.316 226.069Z" fill="#40B0EC"/>
</svg>
