<svg width="27" height="23" viewBox="0 0 27 23" fill="none" xmlns="http://www.w3.org/2000/svg">
<path fill-rule="evenodd" clip-rule="evenodd" d="M26.25 11.4999C26.25 11.0772 26.0821 10.6719 25.7832 10.373C25.4843 10.0741 25.0789 9.90619 24.6562 9.90619H6.19106L13.0346 3.06581C13.3339 2.76655 13.502 2.36066 13.502 1.93744C13.502 1.51422 13.3339 1.10833 13.0346 0.809063C12.7354 0.5098 12.3295 0.341675 11.9062 0.341675C11.483 0.341675 11.0771 0.5098 10.7779 0.809063L1.21537 10.3716C1.06695 10.5196 0.9492 10.6955 0.868855 10.8891C0.788509 11.0827 0.747152 11.2903 0.747152 11.4999C0.747152 11.7096 0.788509 11.9171 0.868855 12.1108C0.9492 12.3044 1.06695 12.4803 1.21537 12.6283L10.7779 22.1908C11.0771 22.4901 11.483 22.6582 11.9062 22.6582C12.3295 22.6582 12.7354 22.4901 13.0346 22.1908C13.3339 21.8916 13.502 21.4857 13.502 21.0624C13.502 20.6392 13.3339 20.2333 13.0346 19.9341L6.19106 13.0937H24.6562C25.0789 13.0937 25.4843 12.9258 25.7832 12.6269C26.0821 12.328 26.25 11.9226 26.25 11.4999Z" fill="#2B303E"/>
</svg>
