<svg width="16" height="24" viewBox="0 0 16 24" fill="none" xmlns="http://www.w3.org/2000/svg">
<path fill-rule="evenodd" clip-rule="evenodd" d="M7.34338 0.774365C2.9795 1.04586 0.699125 3.51711 0.5 7.98599H4.90213C4.95725 6.43799 5.82125 5.28074 7.43 5.11012C9.00913 4.94249 10.5073 5.31861 10.961 6.39824C11.4511 7.56449 10.3509 8.91974 9.82775 9.48862C8.8595 10.5435 7.28675 11.313 6.4715 12.4511C5.67238 13.5664 5.53025 15.0337 5.46875 16.8296H9.3485C9.40288 15.6814 9.47938 14.5815 10.0018 13.8679C10.8515 12.7084 12.1205 12.165 13.184 11.2492C14.1999 10.374 15.2686 9.31911 15.4501 7.68636C15.995 2.79974 12.0061 0.483365 7.34338 0.774365Z" fill="#6FCF97"/>
<path d="M7.44291 23.2499C8.79573 23.2499 9.89241 22.1699 9.89241 20.8375C9.89241 19.5052 8.79573 18.4252 7.44291 18.4252C6.09009 18.4252 4.99341 19.5052 4.99341 20.8375C4.99341 22.1699 6.09009 23.2499 7.44291 23.2499Z" fill="#6FCF97"/>
</svg>
