<svg width="18" height="18" viewBox="0 0 18 18" fill="none" xmlns="http://www.w3.org/2000/svg">
<path d="M17.6217 4.65241C17.5172 4.27876 17.318 3.93843 17.0433 3.66437C16.7687 3.39031 16.4279 3.19182 16.054 3.0881C14.6506 2.71291 9.00873 2.71291 9.00873 2.71291C9.00873 2.71291 3.37755 2.70391 1.95948 3.0881C1.58621 3.19227 1.24612 3.39098 0.972085 3.66501C0.698053 3.93904 0.499346 4.27913 0.395171 4.65241C0.128658 6.08916 -0.00260327 7.54772 0.00310833 9.00897C0.000507838 10.4632 0.131749 11.9146 0.395171 13.3447C0.499683 13.7182 0.698449 14.0585 0.972386 14.3331C1.24632 14.6076 1.58623 14.8071 1.95948 14.9124C3.36292 15.2876 9.00873 15.2876 9.00873 15.2876C9.00873 15.2876 14.6365 15.2876 16.054 14.9124C16.4279 14.8075 16.7685 14.6083 17.043 14.3337C17.3176 14.0591 17.5169 13.7186 17.6217 13.3447C17.8799 11.9154 18.0059 10.4619 17.9969 9.00897C18.0059 7.54647 17.8827 6.09072 17.6217 4.65241ZM7.20648 11.7017V6.30447L11.9028 9.00897L7.20648 11.7017Z" fill="white"/>
</svg>
